<svg xmlns="http://www.w3.org/2000/svg" xmlns:svg="http://www.w3.org/2000/svg" width="290" height="300"><g class="layer"><title>Layer 1</title><rect id="svg_1" width="180" height="272" x="55.254" y="9.34" fill="#63afe7" stroke="#000" stroke-opacity="0" stroke-width="5" transform="matrix(1, 0, 0, 1, 0, 0)"/><rect id="svg_20" width="24.333" height="23" x="159.133" y="221.967" fill="#323232" stroke="#000" stroke-opacity="0" stroke-width="5"/><rect id="svg_21" width="8.333" height="5" x="86.8" y="227.3" fill="#323232" stroke="#000" stroke-opacity="0" stroke-width="5"/><rect id="svg_22" width="8.333" height="5" x="98.8" y="226.967" fill="#323232" stroke="#000" stroke-opacity="0" stroke-width="5"/><rect id="svg_23" width="8.333" height="5" x="88.8" y="256.967" fill="#323232" stroke="#000" stroke-opacity="0" stroke-width="5"/><rect id="svg_24" width="8.333" height="5" x="88.8" y="248.3" fill="#323232" stroke="#000" stroke-opacity="0" stroke-width="5"/><g id="svg_41"><circle id="svg_25" cx="63.633" cy="17.735" r="5.735" fill="#323232" stroke="#000" stroke-opacity="0" stroke-width="5"/><circle id="svg_27" cx="63.7" cy="17.735" r="3.35" fill="#f0f0f0" stroke="#000" stroke-opacity="0" stroke-width="5"/></g><g id="svg_42"><circle id="svg_43" cx="63.633" cy="32.735" r="5.735" fill="#323232" stroke="#000" stroke-opacity="0" stroke-width="5"/><circle id="svg_44" cx="63.7" cy="32.735" r="3.35" fill="#f0f0f0" stroke="#000" stroke-opacity="0" stroke-width="5"/></g><g id="svg_45"><circle id="svg_46" cx="63.633" cy="47.735" r="5.735" fill="#323232" stroke="#000" stroke-opacity="0" stroke-width="5"/><circle id="svg_47" cx="63.7" cy="47.735" r="3.35" fill="#f0f0f0" stroke="#000" stroke-opacity="0" stroke-width="5"/></g><g id="svg_48"><circle id="svg_49" cx="63.633" cy="62.735" r="5.735" fill="#323232" stroke="#000" stroke-opacity="0" stroke-width="5"/><circle id="svg_50" cx="63.7" cy="62.735" r="3.35" fill="#f0f0f0" stroke="#000" stroke-opacity="0" stroke-width="5"/></g><g id="svg_51"><circle id="svg_52" cx="63.633" cy="77.735" r="5.735" fill="#323232" stroke="#000" stroke-opacity="0" stroke-width="5"/><circle id="svg_53" cx="63.7" cy="77.735" r="3.35" fill="#f0f0f0" stroke="#000" stroke-opacity="0" stroke-width="5"/></g><g id="svg_54"><circle id="svg_55" cx="63.633" cy="92.735" r="5.735" fill="#323232" stroke="#000" stroke-opacity="0" stroke-width="5"/><circle id="svg_56" cx="63.7" cy="92.735" r="3.35" fill="#f0f0f0" stroke="#000" stroke-opacity="0" stroke-width="5"/></g><g id="svg_57"><circle id="svg_58" cx="63.633" cy="107.735" r="5.735" fill="#323232" stroke="#000" stroke-opacity="0" stroke-width="5"/><circle id="svg_59" cx="63.7" cy="107.735" r="3.35" fill="#f0f0f0" stroke="#000" stroke-opacity="0" stroke-width="5"/></g><g id="svg_60"><rect id="svg_7" width="83.333" height="99.738" x="102.696" y="48.168" fill="#fff" stroke="#000" stroke-opacity="0" stroke-width="5"/><text id="svg_2" x="144.267" y="134.733" fill="#000" stroke="#000" stroke-opacity="0" stroke-width="0" font-family="Helvetica" font-size="13" text-anchor="middle" xml:space="preserve">LuatOS</text><path id="svg_3" fill="#a0c9ff" stroke="#000" stroke-opacity="0" stroke-width="5" d="m146.25557,107.31754c-0.54695,0.05148 -1.10677,0.08687 -1.68267,0.08687l0,0c-0.51477,0 -1.01507,-0.02735 -1.5025,-0.06917l0,0l-4.22436,5.42926l-1.0392,-0.29439c-1.21937,-0.34265 -2.40335,-0.77216 -3.54229,-1.28694l0,0l-0.98772,-0.44721l0.25417,-6.82075c-0.89764,-0.62738 -1.73576,-1.32715 -2.51113,-2.09449l0,0l-6.6792,1.43493l-0.60968,-0.89602c-0.71586,-1.05207 -1.32555,-2.15401 -1.86606,-3.26882l0,0l-0.46973,-0.97324l4.53484,-5.01905c-0.28313,-1.06333 -0.47134,-2.16044 -0.56786,-3.27847l0,0l-6.00999,-3.17712l0.10939,-1.0762c0.12869,-1.28854 0.37804,-2.52078 0.67564,-3.70476l0,0l0.26543,-1.05046l6.70333,-0.9282c0.47777,-1.00864 1.0408,-1.96419 1.67462,-2.86343l0,0l-2.55778,-6.29633l0.77216,-0.75608c0.90729,-0.88476 1.87892,-1.68588 2.89238,-2.41783l0,0l0.87834,-0.63381l5.78638,3.63398c0.97485,-0.44882 1.99475,-0.81881 3.05164,-1.10194l0,0l2.09771,-6.50867l1.08102,-0.08204c0.58234,-0.04344 1.20811,-0.0933 1.88858,-0.0933l0,0c0.67886,0 1.30302,0.04986 1.88536,0.0933l0,0l1.08102,0.08204l2.12023,6.57624c1.01668,0.28312 2.00118,0.64507 2.94547,1.08424l0,0l5.86682,-3.68546l0.88155,0.63382c1.01346,0.73194 1.9867,1.53467 2.89238,2.41461l0,0l0.77538,0.75607l-2.63661,6.48455c0.5743,0.8349 1.09229,1.71805 1.53467,2.64787l0,0l6.91245,0.95715l0.26865,1.05046c0.30243,1.18238 0.55016,2.41462 0.67564,3.70477l0,0l0.10939,1.0762l-6.21911,3.28812c-0.09331,1.01989 -0.259,2.0237 -0.50674,3.00177l0,0l4.68606,5.1767l-0.47134,0.97807c-0.53891,1.11802 -1.14538,2.22318 -1.86445,3.27203l0,0l-0.60969,0.89281l-6.84488,-1.4671c-0.72551,0.72551 -1.51054,1.3931 -2.35027,1.99635l0,0l0.26061,6.95428l-0.98933,0.44721c-1.14055,0.51316 -2.32292,0.94429 -3.54229,1.28693l0,0l-1.04242,0.29439l-4.23401,-5.44373l0,0l0,-0.00001zm5.43247,1.74219c0.36517,-0.12226 0.7239,-0.25256 1.07942,-0.39251l0,0l-0.24452,-6.5682l0.77055,-0.49386c1.15342,-0.74964 2.20388,-1.64728 3.13691,-2.66717l0,0l0.62094,-0.68047l6.4765,1.38667c0.19465,-0.32495 0.38287,-0.65794 0.56465,-0.99737l0,0l-4.43028,-4.8984l0.27508,-0.87511c0.39091,-1.25959 0.61291,-2.61087 0.67886,-4.02168l0,0l0.04022,-0.91855l5.88451,-3.10955c-0.06113,-0.37643 -0.13191,-0.75125 -0.21234,-1.12607l0,0l-6.54729,-0.90568l-0.35229,-0.84777c-0.52604,-1.26602 -1.22259,-2.45161 -2.05427,-3.5455l0,0l-0.55017,-0.72873l2.49022,-6.12581c-0.28795,-0.25256 -0.58395,-0.49869 -0.88799,-0.73677l0,0l-5.55795,3.4892l-0.81881,-0.43112c-1.21293,-0.63864 -2.524,-1.12285 -3.90745,-1.43815l0,0l-0.89442,-0.2043l-2.00762,-6.22555c-0.19465,-0.00965 -0.38447,-0.01448 -0.56947,-0.01448l0,0c-0.18822,0 -0.37804,0.00483 -0.5743,0.01448l0,0l-1.99314,6.18533l-0.90729,0.19304c-1.40758,0.30243 -2.74921,0.79468 -3.99915,1.44137l0,0l-0.8172,0.42469l-5.46787,-3.43451c-0.30243,0.23808 -0.59842,0.48421 -0.88476,0.73677l0,0l2.42426,5.96494l-0.56947,0.73034c-0.88798,1.14054 -1.62636,2.38887 -2.17974,3.7305l0,0l-0.35069,0.85099l-6.33655,0.87672c-0.08043,0.37482 -0.15122,0.74964 -0.21074,1.12607l0,0l5.68021,3.00338l0.03539,0.92499c0.05952,1.49445 0.30887,2.92778 0.73838,4.2678l0,0l0.28152,0.88155l-4.29032,4.74557c0.18017,0.34104 0.36839,0.67403 0.56464,0.99898l0,0l6.29955,-1.35611l0.62738,0.68047c0.96681,1.0569 2.07036,1.97705 3.28651,2.73956l0,0l0.78503,0.49065l-0.23969,6.46685c0.35552,0.13995 0.71586,0.27025 1.08102,0.39251l0,0l3.98789,-5.12844l0.91051,0.11261c0.6869,0.08687 1.35611,0.14317 2.0221,0.14317l0,0c0.71586,0 1.43815,-0.06273 2.17653,-0.1673l0,0l0.91855,-0.12869l4.01845,5.16865l0,0zm1.8178,-13.31656l0.87833,1.34967l-5.57082,3.62434l-1.97705,-3.042l0,0c-0.71908,0.17535 -1.47515,0.2783 -2.26179,0.2783l0,0c-5.44374,0 -9.85471,-4.41258 -9.85471,-9.84988l0,0c0,-5.44373 4.41097,-9.8547 9.85471,-9.8547l0,0c5.4373,0 9.84988,4.41097 9.84988,9.8547l0,0c0,2.23444 -0.75125,4.3048 -2.01084,5.95851l0,0l1.09229,1.68106m-3.7482,0.5196l0.17374,-0.111l-1.58776,-2.44356l0.92016,-0.92016c1.20328,-1.2065 1.94166,-2.85217 1.94166,-4.68445l0,0c-0.00643,-3.66454 -2.97282,-6.63093 -6.63254,-6.63736l0,0c-3.66776,0.00643 -6.63093,2.9696 -6.63737,6.63736l0,0c0.00644,3.65973 2.97282,6.62611 6.63737,6.63255l0,0c0.81881,0 1.60706,-0.16731 2.36957,-0.46008l0,0l1.21615,-0.46652l1.59902,2.45322l0,0z"/></g><g id="svg_61"><rect id="svg_10" width="4.571" height="9.429" x="86.224" y="171.219" fill="#c8c8c8" stroke="#000" stroke-opacity="0" stroke-width="5"/><rect id="svg_12" width="4.571" height="9.429" x="93.938" y="171.248" fill="#c8c8c8" stroke="#000" stroke-opacity="0" stroke-width="5"/><rect id="svg_13" width="4.571" height="9.429" x="101.938" y="171.248" fill="#c8c8c8" stroke="#000" stroke-opacity="0" stroke-width="5"/><rect id="svg_15" width="4.571" height="9.429" x="111.367" y="171.248" fill="#c8c8c8" stroke="#000" stroke-opacity="0" stroke-width="5"/><rect id="svg_19" width="4.571" height="9.429" x="86.224" y="203.633" fill="#c8c8c8" stroke="#000" stroke-opacity="0" stroke-width="5"/><rect id="svg_18" width="4.571" height="9.429" x="93.938" y="203.662" fill="#c8c8c8" stroke="#000" stroke-opacity="0" stroke-width="5"/><rect id="svg_17" width="4.571" height="9.429" x="101.938" y="203.662" fill="#c8c8c8" stroke="#000" stroke-opacity="0" stroke-width="5"/><rect id="svg_16" width="4.571" height="9.429" x="111.367" y="203.662" fill="#c8c8c8" stroke="#000" stroke-opacity="0" stroke-width="5"/><rect id="svg_5" width="33" height="27" x="84.481" y="178.662" fill="#323232" stroke="#000" stroke-opacity="0" stroke-width="5"/></g><g id="svg_80"><circle id="svg_81" cx="63.633" cy="122.467" r="5.735" fill="#323232" stroke="#000" stroke-opacity="0" stroke-width="5"/><circle id="svg_82" cx="63.7" cy="122.467" r="3.35" fill="#f0f0f0" stroke="#000" stroke-opacity="0" stroke-width="5"/></g><g id="svg_77"><circle id="svg_78" cx="63.633" cy="137.467" r="5.735" fill="#323232" stroke="#000" stroke-opacity="0" stroke-width="5"/><circle id="svg_79" cx="63.7" cy="137.467" r="3.35" fill="#f0f0f0" stroke="#000" stroke-opacity="0" stroke-width="5"/></g><g id="svg_74"><circle id="svg_75" cx="63.633" cy="152.467" r="5.735" fill="#323232" stroke="#000" stroke-opacity="0" stroke-width="5"/><circle id="svg_76" cx="63.7" cy="152.467" r="3.35" fill="#f0f0f0" stroke="#000" stroke-opacity="0" stroke-width="5"/></g><g id="svg_71"><circle id="svg_72" cx="63.633" cy="167.467" r="5.735" fill="#323232" stroke="#000" stroke-opacity="0" stroke-width="5"/><circle id="svg_73" cx="63.7" cy="167.467" r="3.35" fill="#f0f0f0" stroke="#000" stroke-opacity="0" stroke-width="5"/></g><g id="svg_68"><circle id="svg_69" cx="63.633" cy="182.467" r="5.735" fill="#323232" stroke="#000" stroke-opacity="0" stroke-width="5"/><circle id="svg_70" cx="63.7" cy="182.467" r="3.35" fill="#f0f0f0" stroke="#000" stroke-opacity="0" stroke-width="5"/></g><g id="svg_65"><circle id="svg_66" cx="63.633" cy="197.467" r="5.735" fill="#323232" stroke="#000" stroke-opacity="0" stroke-width="5"/><circle id="svg_67" cx="63.7" cy="197.467" r="3.35" fill="#f0f0f0" stroke="#000" stroke-opacity="0" stroke-width="5"/></g><g id="svg_62"><circle id="svg_63" cx="63.633" cy="212.467" r="5.735" fill="#323232" stroke="#000" stroke-opacity="0" stroke-width="5"/><circle id="svg_64" cx="63.7" cy="212.467" r="3.35" fill="#f0f0f0" stroke="#000" stroke-opacity="0" stroke-width="5"/></g><g id="svg_101"><circle id="svg_102" cx="63.633" cy="227.8" r="5.735" fill="#323232" stroke="#000" stroke-opacity="0" stroke-width="5"/><circle id="svg_103" cx="63.7" cy="227.8" r="3.35" fill="#f0f0f0" stroke="#000" stroke-opacity="0" stroke-width="5"/></g><g id="svg_98"><circle id="svg_99" cx="63.633" cy="242.8" r="5.735" fill="#323232" stroke="#000" stroke-opacity="0" stroke-width="5"/><circle id="svg_100" cx="63.7" cy="242.8" r="3.35" fill="#f0f0f0" stroke="#000" stroke-opacity="0" stroke-width="5"/></g><g id="svg_95"><circle id="svg_96" cx="63.633" cy="257.8" r="5.735" fill="#323232" stroke="#000" stroke-opacity="0" stroke-width="5"/><circle id="svg_97" cx="63.7" cy="257.8" r="3.35" fill="#f0f0f0" stroke="#000" stroke-opacity="0" stroke-width="5"/></g><g id="svg_92"><circle id="svg_93" cx="63.633" cy="272.8" r="5.735" fill="#323232" stroke="#000" stroke-opacity="0" stroke-width="5"/><circle id="svg_94" cx="63.7" cy="272.8" r="3.35" fill="#f0f0f0" stroke="#000" stroke-opacity="0" stroke-width="5"/></g><g id="svg_155"><circle id="svg_156" cx="226.967" cy="17.934" r="5.735" fill="#323232" stroke="#000" stroke-opacity="0" stroke-width="5"/><circle id="svg_157" cx="227.033" cy="17.934" r="3.35" fill="#f0f0f0" stroke="#000" stroke-opacity="0" stroke-width="5"/></g><g id="svg_152"><circle id="svg_153" cx="226.967" cy="32.934" r="5.735" fill="#323232" stroke="#000" stroke-opacity="0" stroke-width="5"/><circle id="svg_154" cx="227.033" cy="32.934" r="3.35" fill="#f0f0f0" stroke="#000" stroke-opacity="0" stroke-width="5"/></g><g id="svg_149"><circle id="svg_150" cx="226.967" cy="47.934" r="5.735" fill="#323232" stroke="#000" stroke-opacity="0" stroke-width="5"/><circle id="svg_151" cx="227.033" cy="47.934" r="3.35" fill="#f0f0f0" stroke="#000" stroke-opacity="0" stroke-width="5"/></g><g id="svg_146"><circle id="svg_147" cx="226.967" cy="62.934" r="5.735" fill="#323232" stroke="#000" stroke-opacity="0" stroke-width="5"/><circle id="svg_148" cx="227.033" cy="62.934" r="3.35" fill="#f0f0f0" stroke="#000" stroke-opacity="0" stroke-width="5"/></g><g id="svg_143"><circle id="svg_144" cx="226.967" cy="77.934" r="5.735" fill="#323232" stroke="#000" stroke-opacity="0" stroke-width="5"/><circle id="svg_145" cx="227.033" cy="77.934" r="3.35" fill="#f0f0f0" stroke="#000" stroke-opacity="0" stroke-width="5"/></g><g id="svg_140"><circle id="svg_141" cx="226.967" cy="92.934" r="5.735" fill="#323232" stroke="#000" stroke-opacity="0" stroke-width="5"/><circle id="svg_142" cx="227.033" cy="92.934" r="3.35" fill="#f0f0f0" stroke="#000" stroke-opacity="0" stroke-width="5"/></g><g id="svg_137"><circle id="svg_138" cx="226.967" cy="107.934" r="5.735" fill="#323232" stroke="#000" stroke-opacity="0" stroke-width="5"/><circle id="svg_139" cx="227.033" cy="107.934" r="3.35" fill="#f0f0f0" stroke="#000" stroke-opacity="0" stroke-width="5"/></g><g id="svg_134"><circle id="svg_135" cx="226.967" cy="122.666" r="5.735" fill="#323232" stroke="#000" stroke-opacity="0" stroke-width="5"/><circle id="svg_136" cx="227.033" cy="122.666" r="3.35" fill="#f0f0f0" stroke="#000" stroke-opacity="0" stroke-width="5"/></g><g id="svg_131"><circle id="svg_132" cx="226.967" cy="137.666" r="5.735" fill="#323232" stroke="#000" stroke-opacity="0" stroke-width="5"/><circle id="svg_133" cx="227.033" cy="137.666" r="3.35" fill="#f0f0f0" stroke="#000" stroke-opacity="0" stroke-width="5"/></g><g id="svg_128"><circle id="svg_129" cx="226.967" cy="152.666" r="5.735" fill="#323232" stroke="#000" stroke-opacity="0" stroke-width="5"/><circle id="svg_130" cx="227.033" cy="152.666" r="3.35" fill="#f0f0f0" stroke="#000" stroke-opacity="0" stroke-width="5"/></g><g id="svg_125"><circle id="svg_126" cx="226.967" cy="167.666" r="5.735" fill="#323232" stroke="#000" stroke-opacity="0" stroke-width="5"/><circle id="svg_127" cx="227.033" cy="167.666" r="3.35" fill="#f0f0f0" stroke="#000" stroke-opacity="0" stroke-width="5"/></g><g id="svg_122"><circle id="svg_123" cx="226.967" cy="182.666" r="5.735" fill="#323232" stroke="#000" stroke-opacity="0" stroke-width="5"/><circle id="svg_124" cx="227.033" cy="182.666" r="3.35" fill="#f0f0f0" stroke="#000" stroke-opacity="0" stroke-width="5"/></g><g id="svg_119"><circle id="svg_120" cx="226.967" cy="197.666" r="5.735" fill="#323232" stroke="#000" stroke-opacity="0" stroke-width="5"/><circle id="svg_121" cx="227.033" cy="197.666" r="3.35" fill="#f0f0f0" stroke="#000" stroke-opacity="0" stroke-width="5"/></g><g id="svg_116"><circle id="svg_117" cx="226.967" cy="212.666" r="5.735" fill="#323232" stroke="#000" stroke-opacity="0" stroke-width="5"/><circle id="svg_118" cx="227.033" cy="212.666" r="3.35" fill="#f0f0f0" stroke="#000" stroke-opacity="0" stroke-width="5"/></g><g id="svg_113"><circle id="svg_114" cx="226.967" cy="227.999" r="5.735" fill="#323232" stroke="#000" stroke-opacity="0" stroke-width="5"/><circle id="svg_115" cx="227.033" cy="227.999" r="3.35" fill="#f0f0f0" stroke="#000" stroke-opacity="0" stroke-width="5"/></g><g id="svg_110"><circle id="svg_111" cx="226.967" cy="242.999" r="5.735" fill="#323232" stroke="#000" stroke-opacity="0" stroke-width="5"/><circle id="svg_112" cx="227.033" cy="242.999" r="3.35" fill="#f0f0f0" stroke="#000" stroke-opacity="0" stroke-width="5"/></g><g id="svg_107"><circle id="svg_108" cx="226.967" cy="257.999" r="5.735" fill="#323232" stroke="#000" stroke-opacity="0" stroke-width="5"/><circle id="svg_109" cx="227.033" cy="257.999" r="3.35" fill="#f0f0f0" stroke="#000" stroke-opacity="0" stroke-width="5"/></g><g id="svg_104"><circle id="svg_105" cx="226.967" cy="272.999" r="5.735" fill="#323232" stroke="#000" stroke-opacity="0" stroke-width="5"/><circle id="svg_106" cx="227.033" cy="272.999" r="3.35" fill="#f0f0f0" stroke="#000" stroke-opacity="0" stroke-width="5"/></g><rect id="svg_158" width="34" height="11.333" x="73.767" y="11.733" fill="#ff7f00" stroke="#000" stroke-opacity="0" stroke-width="5"/><text id="svg_159" x="90.374" y="20.469" fill="#fff" stroke="#000" stroke-opacity="0" stroke-width="0" font-family="Helvetica" font-size="9" font-weight="bold" text-anchor="middle" xml:space="preserve">VBAT</text><rect id="svg_161" width="34.667" height="11.333" x="72.967" y="27.133" fill="#4c4c4c" stroke="#000" stroke-opacity="0" stroke-width="5"/><text id="svg_160" x="90.146" y="35.869" fill="#fff" stroke="#000" stroke-opacity="0" stroke-width="0" font-family="Helvetica" font-size="9" font-weight="bold" text-anchor="middle" xml:space="preserve">GND</text><path id="svg_162" fill="#4c4c4c" stroke="#4c4c4c" d="m23.71645,15.15957l0,4.55856m-1.87901,-2.27928l3.75802,0m4.24655,5.64667l-10.62158,0m-14.19026,0l10.1163,0m0.0909,-5.41028l0.6363,0l0,10.88463l-0.6363,0l0,-10.88463zm3.27236,-5.96418l0.63629,0l0,22.66388l-0.63629,0l0,-22.66388zm-14.08618,10.83451l0.60753,0l0,0.99656l-0.60753,0l0,-0.99656zm25.42089,0.02507l0.60753,0l0,0.99657l-0.60753,0l0,-0.99657z" transform="rotate(-90, 17.4386, 23.043)"/><line id="svg_164" x1="17.767" x2="63.767" y1="9.733" y2="17.733" fill="none" stroke="red" stroke-width="5"/><line id="svg_165" x1="17.767" x2="65.767" y1="36.4" y2="33.067" fill="none" stroke="#333" stroke-width="5"/><rect id="svg_8" width="35.333" height="11.333" x="72.467" y="42.169" fill="#00bf00" stroke="#000" stroke-opacity="0" stroke-width="5"/><text id="svg_6" x="89.074" y="50.619" fill="#fff" stroke="#000" stroke-opacity="0" stroke-width="0" font-family="Helvetica" font-size="9" font-weight="bold" text-anchor="middle" xml:space="preserve">GPIO1</text><rect id="svg_11" width="35.333" height="11.333" x="72.633" y="58.169" fill="#00bf00" stroke="#000" stroke-opacity="0" stroke-width="5"/><text id="svg_9" x="89.241" y="66.619" fill="#fff" stroke="#000" stroke-opacity="0" stroke-width="0" font-family="Helvetica" font-size="9" font-weight="bold" text-anchor="middle" xml:space="preserve">GPIO2</text><rect id="svg_26" width="35.333" height="11.333" x="72.383" y="72.919" fill="#00bf00" stroke="#000" stroke-opacity="0" stroke-width="5"/><text id="svg_14" x="88.991" y="81.369" fill="#fff" stroke="#000" stroke-opacity="0" stroke-width="0" font-family="Helvetica" font-size="9" font-weight="bold" text-anchor="middle" xml:space="preserve">GPIO3</text><rect id="svg_29" width="35.333" height="11.333" x="72.133" y="87.383" fill="#00bf00" stroke="#000" stroke-opacity="0" stroke-width="5"/><text id="svg_28" x="88.741" y="96.119" fill="#fff" stroke="#000" stroke-opacity="0" stroke-width="0" font-family="Helvetica" font-size="9" font-weight="bold" text-anchor="middle" xml:space="preserve">GPIO4</text><rect id="svg_31" width="35.333" height="11.333" x="72.383" y="102.133" fill="#00bf00" stroke="#000" stroke-opacity="0" stroke-width="5"/><text id="svg_30" x="88.991" y="110.869" fill="#fff" stroke="#000" stroke-opacity="0" stroke-width="0" font-family="Helvetica" font-size="9" font-weight="bold" text-anchor="middle" xml:space="preserve">GPIO5</text><path id="svg_led1" fill="#ff0" stroke="#666" d="m35.20811,34.410221c-1.650044,-0.007605 -3.435019,0.430954 -4.509825,1.841205c-0.837029,1.039629 -1.717745,2.143297 -1.910294,3.535434c-0.43363,2.458972 -0.412594,5.060457 0.304798,7.459544c0.415694,1.191362 1.377085,2.052856 1.956718,3.154501c0.765854,1.153551 1.127911,2.555815 1.026419,3.954065c2.02317,0 4.046337,0 6.069505,0c0.006633,-2.09102 1.251051,-3.810503 2.360156,-5.43532c0.77436,-0.955993 1.275343,-2.11409 1.451984,-3.352397c0.341312,-2.219373 0.418791,-4.594347 -0.371279,-6.722522c-0.750145,-1.628266 -1.66924,-3.415093 -3.425994,-4.032193c-0.941997,-0.359011 -1.958422,-0.41948 -2.952189,-0.402314l-0.000001,-0.000001l0.000002,-0.000002zm-3.094996,19.801497c2.037374,0 4.074747,0 6.112118,0c-0.365612,0.7808 -0.829319,1.636823 -0.572659,2.523302c-0.339819,0.770764 0.095186,1.538251 -0.464018,2.243553c-0.205913,0.966629 -1.378227,1.041925 -2.16348,1.068379c-0.848584,0.098302 -1.791826,-0.147547 -2.115495,-1.070032c-0.673257,-0.493325 0.138205,-1.094235 -0.383462,-1.648811c0.601539,-0.681461 -0.447437,-1.037777 -0.074309,-1.777491c-0.102496,-0.505297 -0.479855,-0.741183 -0.338695,-1.338901l0,0.000001zm-0.013279,0.002175c2.037372,0 4.074746,0 6.112119,0c-0.153518,0.758617 -0.817486,1.475831 -0.56505,2.23933c0.143657,0.633866 -0.454055,1.152729 -0.095439,1.822084c-0.273187,0.803071 -0.819998,1.710059 -1.749938,1.707476c-0.898323,0.001594 -2.117883,0.312795 -2.674519,-0.621752c-0.21052,-0.563166 -0.89033,-0.900834 -0.368372,-1.511969c-0.647197,-0.50653 0.434042,-1.256653 -0.397719,-1.590467c0.395481,-0.79947 -0.426619,-1.25949 -0.261083,-2.044703l0,0l0,0.000001l0.000001,0zm-0.025574,-0.016777c2.037374,0 4.074747,0 6.112121,0c-0.153518,0.758617 -0.817484,1.475832 -0.565047,2.239332c0.143653,0.633864 -0.454058,1.152727 -0.09544,1.822082c-0.353318,0.584733 -0.731676,1.539503 -1.47209,1.608124c-0.812617,0.01002 -1.625237,0.020037 -2.437855,0.030059c-0.556776,-0.622885 -1.351027,-1.349949 -0.914615,-2.180471c-0.615694,-0.450154 0.483014,-1.178653 -0.36599,-1.474426c0.395481,-0.79947 -0.42662,-1.259488 -0.261084,-2.0447l0,0l0,-0.000001l0,0.000001zm1.670325,5.59519c0.863386,0 1.726773,0 2.590159,0c-0.27981,0.211133 -0.449157,0.702843 -0.854157,0.595987c-0.416391,-0.03397 -0.884052,0.050906 -1.269014,-0.05592c-0.155662,-0.180024 -0.311325,-0.360046 -0.466986,-0.540067l-0.000001,0l-0.000001,0zm0.940046,-5.636625c-0.298591,-4.585424 -0.603435,-6.529356 -1.727687,-9.304255c-1.124252,-2.774899 -0.241698,-1.849074 2.27031,-2.149221c2.512009,-0.300146 1.127398,0.865298 1.12842,3.007661c0.001022,2.142364 0.146388,3.216328 0.309663,5.075378c-0.161362,1.800197 0.150735,1.812465 -0.233594,3.254163" transform="rotate(-90.5977, 35.3516, 47.4043)"/><path id="svg_led2" fill="#ff0" stroke="#666" d="m35.908504,49.007096c-1.650044,-0.007605 -3.435019,0.430954 -4.509825,1.841205c-0.837029,1.039629 -1.717745,2.143297 -1.910294,3.535434c-0.43363,2.458972 -0.412594,5.060457 0.304798,7.459544c0.415694,1.191362 1.377085,2.052856 1.956718,3.154501c0.765854,1.153551 1.127911,2.555815 1.026419,3.954065c2.02317,0 4.046337,0 6.069505,0c0.006633,-2.09102 1.251051,-3.810503 2.360156,-5.43532c0.77436,-0.955993 1.275343,-2.11409 1.451984,-3.352397c0.341312,-2.219373 0.418791,-4.594347 -0.371279,-6.722522c-0.750145,-1.628266 -1.66924,-3.415093 -3.425994,-4.032193c-0.941997,-0.359011 -1.958422,-0.41948 -2.952189,-0.402314l-0.000001,-0.000001l0.000002,-0.000002zm-3.094996,19.801497c2.037374,0 4.074747,0 6.112118,0c-0.365612,0.7808 -0.829319,1.636823 -0.572659,2.523302c-0.339819,0.770764 0.095186,1.538251 -0.464018,2.243553c-0.205913,0.966629 -1.378227,1.041925 -2.16348,1.068379c-0.848584,0.098302 -1.791826,-0.147547 -2.115495,-1.070032c-0.673257,-0.493325 0.138205,-1.094235 -0.383462,-1.648811c0.601539,-0.681461 -0.447437,-1.037777 -0.074309,-1.777491c-0.102496,-0.505297 -0.479855,-0.741183 -0.338695,-1.338901l0,0.000001zm-0.013279,0.002175c2.037372,0 4.074746,0 6.112119,0c-0.153518,0.758617 -0.817486,1.475831 -0.56505,2.23933c0.143657,0.633866 -0.454055,1.152729 -0.095439,1.822084c-0.273187,0.803071 -0.819998,1.710059 -1.749938,1.707476c-0.898323,0.001594 -2.117883,0.312795 -2.674519,-0.621752c-0.21052,-0.563166 -0.89033,-0.900834 -0.368372,-1.511969c-0.647197,-0.50653 0.434042,-1.256653 -0.397719,-1.590467c0.395481,-0.79947 -0.426619,-1.25949 -0.261083,-2.044703l0,0l0,0.000001l0.000001,0zm-0.025574,-0.016777c2.037374,0 4.074747,0 6.112121,0c-0.153518,0.758617 -0.817484,1.475832 -0.565047,2.239332c0.143653,0.633864 -0.454058,1.152727 -0.09544,1.822082c-0.353318,0.584733 -0.731676,1.539503 -1.47209,1.608124c-0.812617,0.01002 -1.625237,0.020037 -2.437855,0.030059c-0.556776,-0.622885 -1.351027,-1.349949 -0.914615,-2.180471c-0.615694,-0.450154 0.483014,-1.178653 -0.36599,-1.474426c0.395481,-0.79947 -0.42662,-1.259488 -0.261084,-2.0447l0,0l0,-0.000001l0,0.000001zm1.670325,5.59519c0.863386,0 1.726773,0 2.590159,0c-0.27981,0.211133 -0.449157,0.702843 -0.854157,0.595987c-0.416391,-0.03397 -0.884052,0.050906 -1.269014,-0.05592c-0.155662,-0.180024 -0.311325,-0.360046 -0.466986,-0.540067l-0.000001,0l-0.000001,0zm0.940046,-5.636625c-0.298591,-4.585424 -0.603435,-6.529356 -1.727687,-9.304255c-1.124252,-2.774899 -0.241698,-1.849074 2.27031,-2.149221c2.512009,-0.300146 1.127398,0.865298 1.12842,3.007661c0.001022,2.142364 0.146388,3.216328 0.309663,5.075378c-0.161362,1.800197 0.150735,1.812465 -0.233594,3.254163" transform="rotate(-90.5977, 36.052, 62.0012)"/><path id="svg_led3" fill="#ff0" stroke="#666" d="m36.408504,64.257096c-1.650044,-0.007605 -3.435019,0.430954 -4.509825,1.841205c-0.837029,1.039629 -1.717745,2.143297 -1.910294,3.535434c-0.43363,2.458972 -0.412594,5.060457 0.304798,7.459544c0.415694,1.191362 1.377085,2.052856 1.956718,3.154501c0.765854,1.153551 1.127911,2.555815 1.026419,3.954065c2.02317,0 4.046337,0 6.069505,0c0.006633,-2.09102 1.251051,-3.810503 2.360156,-5.43532c0.77436,-0.955993 1.275343,-2.11409 1.451984,-3.352397c0.341312,-2.219373 0.418791,-4.594347 -0.371279,-6.722522c-0.750145,-1.628266 -1.66924,-3.415093 -3.425994,-4.032193c-0.941997,-0.359011 -1.958422,-0.41948 -2.952189,-0.402314l-0.000001,-0.000001l0.000002,-0.000002zm-3.094996,19.801497c2.037374,0 4.074747,0 6.112118,0c-0.365612,0.7808 -0.829319,1.636823 -0.572659,2.523302c-0.339819,0.770764 0.095186,1.538251 -0.464018,2.243553c-0.205913,0.966629 -1.378227,1.041925 -2.16348,1.068379c-0.848584,0.098302 -1.791826,-0.147547 -2.115495,-1.070032c-0.673257,-0.493325 0.138205,-1.094235 -0.383462,-1.648811c0.601539,-0.681461 -0.447437,-1.037777 -0.074309,-1.777491c-0.102496,-0.505297 -0.479855,-0.741183 -0.338695,-1.338901l0,0.000001zm-0.013279,0.002175c2.037372,0 4.074746,0 6.112119,0c-0.153518,0.758617 -0.817486,1.475831 -0.56505,2.23933c0.143657,0.633866 -0.454055,1.152729 -0.095439,1.822084c-0.273187,0.803071 -0.819998,1.710059 -1.749938,1.707476c-0.898323,0.001594 -2.117883,0.312795 -2.674519,-0.621752c-0.21052,-0.563166 -0.89033,-0.900834 -0.368372,-1.511969c-0.647197,-0.50653 0.434042,-1.256653 -0.397719,-1.590467c0.395481,-0.79947 -0.426619,-1.25949 -0.261083,-2.044703l0,0l0,0.000001l0.000001,0zm-0.025574,-0.016777c2.037374,0 4.074747,0 6.112121,0c-0.153518,0.758617 -0.817484,1.475832 -0.565047,2.239332c0.143653,0.633864 -0.454058,1.152727 -0.09544,1.822082c-0.353318,0.584733 -0.731676,1.539503 -1.47209,1.608124c-0.812617,0.01002 -1.625237,0.020037 -2.437855,0.030059c-0.556776,-0.622885 -1.351027,-1.349949 -0.914615,-2.180471c-0.615694,-0.450154 0.483014,-1.178653 -0.36599,-1.474426c0.395481,-0.79947 -0.42662,-1.259488 -0.261084,-2.0447l0,0l0,-0.000001l0,0.000001zm1.670325,5.59519c0.863386,0 1.726773,0 2.590159,0c-0.27981,0.211133 -0.449157,0.702843 -0.854157,0.595987c-0.416391,-0.03397 -0.884052,0.050906 -1.269014,-0.05592c-0.155662,-0.180024 -0.311325,-0.360046 -0.466986,-0.540067l-0.000001,0l-0.000001,0zm0.940046,-5.636625c-0.298591,-4.585424 -0.603435,-6.529356 -1.727687,-9.304255c-1.124252,-2.774899 -0.241698,-1.849074 2.27031,-2.149221c2.512009,-0.300146 1.127398,0.865298 1.12842,3.007661c0.001022,2.142364 0.146388,3.216328 0.309663,5.075378c-0.161362,1.800197 0.150735,1.812465 -0.233594,3.254163" transform="rotate(-90.5977, 36.552, 77.2512)"/><path id="svg_led4" fill="#ff0" stroke="#666" d="m36.408504,79.757096c-1.650044,-0.007605 -3.435019,0.430954 -4.509825,1.841205c-0.837029,1.039629 -1.717745,2.143297 -1.910294,3.535434c-0.43363,2.458972 -0.412594,5.060457 0.304798,7.459544c0.415694,1.191362 1.377085,2.052856 1.956718,3.154501c0.765854,1.153551 1.127911,2.555815 1.026419,3.954065c2.02317,0 4.046337,0 6.069505,0c0.006633,-2.09102 1.251051,-3.810503 2.360156,-5.43532c0.77436,-0.955993 1.275343,-2.11409 1.451984,-3.352397c0.341312,-2.219373 0.418791,-4.594347 -0.371279,-6.722522c-0.750145,-1.628266 -1.66924,-3.415093 -3.425994,-4.032193c-0.941997,-0.359011 -1.958422,-0.41948 -2.952189,-0.402314l-0.000001,-0.000001l0.000002,-0.000002zm-3.094996,19.801497c2.037374,0 4.074747,0 6.112118,0c-0.365612,0.7808 -0.829319,1.636823 -0.572659,2.523302c-0.339819,0.770764 0.095186,1.538251 -0.464018,2.243553c-0.205913,0.966629 -1.378227,1.041925 -2.16348,1.068379c-0.848584,0.098302 -1.791826,-0.147547 -2.115495,-1.070032c-0.673257,-0.493325 0.138205,-1.094235 -0.383462,-1.648811c0.601539,-0.681461 -0.447437,-1.037777 -0.074309,-1.777491c-0.102496,-0.505297 -0.479855,-0.741183 -0.338695,-1.338901l0,0.000001zm-0.013279,0.002175c2.037372,0 4.074746,0 6.112119,0c-0.153518,0.758617 -0.817486,1.475831 -0.56505,2.23933c0.143657,0.633866 -0.454055,1.152729 -0.095439,1.822084c-0.273187,0.803071 -0.819998,1.710059 -1.749938,1.707476c-0.898323,0.001594 -2.117883,0.312795 -2.674519,-0.621752c-0.21052,-0.563166 -0.89033,-0.900834 -0.368372,-1.511969c-0.647197,-0.50653 0.434042,-1.256653 -0.397719,-1.590467c0.395481,-0.79947 -0.426619,-1.25949 -0.261083,-2.044703l0,0l0,0.000001l0.000001,0zm-0.025574,-0.016777c2.037374,0 4.074747,0 6.112121,0c-0.153518,0.758617 -0.817484,1.475832 -0.565047,2.239332c0.143653,0.633864 -0.454058,1.152727 -0.09544,1.822082c-0.353318,0.584733 -0.731676,1.539503 -1.47209,1.608124c-0.812617,0.01002 -1.625237,0.020037 -2.437855,0.030059c-0.556776,-0.622885 -1.351027,-1.349949 -0.914615,-2.180471c-0.615694,-0.450154 0.483014,-1.178653 -0.36599,-1.474426c0.395481,-0.79947 -0.42662,-1.259488 -0.261084,-2.0447l0,0l0,-0.000001l0,0.000001zm1.670325,5.59519c0.863386,0 1.726773,0 2.590159,0c-0.27981,0.211133 -0.449157,0.702843 -0.854157,0.595987c-0.416391,-0.03397 -0.884052,0.050906 -1.269014,-0.05592c-0.155662,-0.180024 -0.311325,-0.360046 -0.466986,-0.540067l-0.000001,0l-0.000001,0zm0.940046,-5.636625c-0.298591,-4.585424 -0.603435,-6.529356 -1.727687,-9.304255c-1.124252,-2.774899 -0.241698,-1.849074 2.27031,-2.149221c2.512009,-0.300146 1.127398,0.865298 1.12842,3.007661c0.001022,2.142364 0.146388,3.216328 0.309663,5.075378c-0.161362,1.800197 0.150735,1.812465 -0.233594,3.254163" transform="rotate(-90.5977, 36.5519, 92.7512)"/><path id="svg_led5" fill="#ff0" stroke="#666" d="m35.908504,95.257096c-1.650044,-0.007605 -3.435019,0.430954 -4.509825,1.841205c-0.837029,1.039629 -1.717745,2.143297 -1.910294,3.535434c-0.43363,2.458972 -0.412594,5.060457 0.304798,7.459544c0.415694,1.191362 1.377085,2.052856 1.956718,3.154501c0.765854,1.153551 1.127911,2.555815 1.026419,3.954065c2.02317,0 4.046337,0 6.069505,0c0.006633,-2.09102 1.251051,-3.810503 2.360156,-5.43532c0.77436,-0.955993 1.275343,-2.11409 1.451984,-3.352397c0.341312,-2.219373 0.418791,-4.594347 -0.371279,-6.722522c-0.750145,-1.628266 -1.66924,-3.415093 -3.425994,-4.032193c-0.941997,-0.359011 -1.958422,-0.41948 -2.952189,-0.402314l-0.000001,-0.000001l0.000002,-0.000002zm-3.094996,19.801497c2.037374,0 4.074747,0 6.112118,0c-0.365612,0.7808 -0.829319,1.636823 -0.572659,2.523302c-0.339819,0.770764 0.095186,1.538251 -0.464018,2.243553c-0.205913,0.966629 -1.378227,1.041925 -2.16348,1.068379c-0.848584,0.098302 -1.791826,-0.147547 -2.115495,-1.070032c-0.673257,-0.493325 0.138205,-1.094235 -0.383462,-1.648811c0.601539,-0.681461 -0.447437,-1.037777 -0.074309,-1.777491c-0.102496,-0.505297 -0.479855,-0.741183 -0.338695,-1.338901l0,0.000001zm-0.013279,0.002175c2.037372,0 4.074746,0 6.112119,0c-0.153518,0.758617 -0.817486,1.475831 -0.56505,2.23933c0.143657,0.633866 -0.454055,1.152729 -0.095439,1.822084c-0.273187,0.803071 -0.819998,1.710059 -1.749938,1.707476c-0.898323,0.001594 -2.117883,0.312795 -2.674519,-0.621752c-0.21052,-0.563166 -0.89033,-0.900834 -0.368372,-1.511969c-0.647197,-0.50653 0.434042,-1.256653 -0.397719,-1.590467c0.395481,-0.79947 -0.426619,-1.25949 -0.261083,-2.044703l0,0l0,0.000001l0.000001,0zm-0.025574,-0.016777c2.037374,0 4.074747,0 6.112121,0c-0.153518,0.758617 -0.817484,1.475832 -0.565047,2.239332c0.143653,0.633864 -0.454058,1.152727 -0.09544,1.822082c-0.353318,0.584733 -0.731676,1.539503 -1.47209,1.608124c-0.812617,0.01002 -1.625237,0.020037 -2.437855,0.030059c-0.556776,-0.622885 -1.351027,-1.349949 -0.914615,-2.180471c-0.615694,-0.450154 0.483014,-1.178653 -0.36599,-1.474426c0.395481,-0.79947 -0.42662,-1.259488 -0.261084,-2.0447l0,0l0,-0.000001l0,0.000001zm1.670325,5.59519c0.863386,0 1.726773,0 2.590159,0c-0.27981,0.211133 -0.449157,0.702843 -0.854157,0.595987c-0.416391,-0.03397 -0.884052,0.050906 -1.269014,-0.05592c-0.155662,-0.180024 -0.311325,-0.360046 -0.466986,-0.540067l-0.000001,0l-0.000001,0zm0.940046,-5.636625c-0.298591,-4.585424 -0.603435,-6.529356 -1.727687,-9.304255c-1.124252,-2.774899 -0.241698,-1.849074 2.27031,-2.149221c2.512009,-0.300146 1.127398,0.865298 1.12842,3.007661c0.001022,2.142364 0.146388,3.216328 0.309663,5.075378c-0.161362,1.800197 0.150735,1.812465 -0.233594,3.254163" transform="rotate(-90.5977, 36.0519, 108.251)"/><line id="svg_39" x1="48.55" x2="64.05" y1="48.1" y2="47.6" fill="none" stroke="#5fbf00" stroke-width="4"/><line id="svg_40" x1="48.8" x2="64.05" y1="61.85" y2="62.35" fill="none" stroke="#5fbf00" stroke-width="4"/><line id="svg_83" x1="49.05" x2="64.3" y1="77.1" y2="77.6" fill="none" stroke="#5fbf00" stroke-width="4"/><line id="svg_84" x1="49.05" x2="63.8" y1="92.6" y2="92.85" fill="none" stroke="#5fbf00" stroke-width="4"/><line id="svg_85" x1="48.8" x2="64.8" y1="107.6" y2="107.1" fill="none" stroke="#5fbf00" stroke-width="4"/><line id="svg_90" x1="22.8" x2="14.8" y1="108.1" y2="108.1" fill="none" stroke="#333" stroke-width="4"/><line id="svg_91" x1="23.8" x2="14.8" y1="92.1" y2="92.1" fill="none" stroke="#333" stroke-width="4"/><line id="svg_163" x1="23.55" x2="14.55" y1="76.35" y2="76.1" fill="none" stroke="#333" stroke-width="4"/><line id="svg_166" x1="23.05" x2="14.8" y1="61.6" y2="61.85" fill="none" stroke="#333" stroke-width="4"/><line id="svg_167" x1="22.55" x2="15.05" y1="47.1" y2="47.35" fill="none" stroke="#333" stroke-width="4"/><line id="svg_168" x1="15.3" x2="17.05" y1="110.1" y2="34.35" fill="none" stroke="#333" stroke-width="4"/><rect id="svg_171" width="34.667" height="11.333" x="185.224" y="26.819" fill="#4c4c4c" stroke="#000" stroke-opacity="0" stroke-width="5"/><text id="svg_170" x="202.403" y="35.555" fill="#fff" stroke="#000" stroke-opacity="0" stroke-width="0" font-family="Helvetica" font-size="9" font-weight="bold" text-anchor="middle" xml:space="preserve">GND</text><rect id="svg_173" width="34" height="11.333" x="185.843" y="11.962" fill="#ff7f00" stroke="#000" stroke-opacity="0" stroke-width="5"/><text id="svg_172" x="202.45" y="20.697" fill="#fff" stroke="#000" stroke-opacity="0" stroke-width="0" font-family="Helvetica" font-size="9" font-weight="bold" text-anchor="middle" xml:space="preserve">VBAT</text><rect id="svg_183" width="35.333" height="11.333" x="184.402" y="42.551" fill="#00bf00" stroke="#000" stroke-opacity="0" stroke-width="5"/><text id="svg_182" x="201.581" y="51.001" fill="#fff" stroke="#000" stroke-opacity="0" stroke-width="0" font-family="Helvetica" font-size="9" font-weight="bold" text-anchor="middle" xml:space="preserve">GPIO11</text><rect id="svg_181" width="35.333" height="11.333" x="184.569" y="58.551" fill="#00bf00" stroke="#000" stroke-opacity="0" stroke-width="5"/><text id="svg_180" x="202.319" y="67.858" fill="#fff" stroke="#000" stroke-opacity="0" stroke-width="0" font-family="Helvetica" font-size="9" font-weight="bold" text-anchor="middle" xml:space="preserve">GPIO12</text><rect id="svg_179" width="35.333" height="11.333" x="184.319" y="73.301" fill="#00bf00" stroke="#000" stroke-opacity="0" stroke-width="5"/><text id="svg_178" x="201.784" y="82.608" fill="#fff" stroke="#000" stroke-opacity="0" stroke-width="0" font-family="Helvetica" font-size="9" font-weight="bold" text-anchor="middle" xml:space="preserve">GPIO13</text><rect id="svg_177" width="35.333" height="11.333" x="184.069" y="87.765" fill="#00bf00" stroke="#000" stroke-opacity="0" stroke-width="5"/><text id="svg_176" x="201.819" y="96.501" fill="#fff" stroke="#000" stroke-opacity="0" stroke-width="0" font-family="Helvetica" font-size="9" font-weight="bold" text-anchor="middle" xml:space="preserve">GPIO14</text><rect id="svg_175" width="35.333" height="11.333" x="184.319" y="102.515" fill="#00bf00" stroke="#000" stroke-opacity="0" stroke-width="5"/><text id="svg_174" x="201.784" y="111.251" fill="#fff" stroke="#000" stroke-opacity="0" stroke-width="0" font-family="Helvetica" font-size="9" font-weight="bold" text-anchor="middle" xml:space="preserve">GPIO15</text><g id="svg_225"><rect id="svg_192" width="21.143" height="8.857" x="249.722" y="43.813" fill="#b2b2b2" stroke="#999"/><rect id="svg_193" width="1.846" height="4.923" x="250.531" y="45.8" fill="#fff" stroke="#000" stroke-opacity="0"/><rect id="svg_197" width="1.846" height="4.923" x="268.223" y="45.8" fill="#fff" stroke="#000" stroke-opacity="0"/><rect id="svg_198" width="11.231" height="5.385" x="254.685" y="45.492" fill="#f2f2f2" stroke="#000" stroke-opacity="0"/><rect id="svg_201" width="2.923" height="3.077" x="246.223" y="46.723" fill="#f2f2f2" stroke="#000" stroke-opacity="0"/><rect id="svg_202" width="2.154" height="2.308" x="247.3" y="47.338" fill="#666" stroke="#000" stroke-opacity="0"/><rect id="svg_203" width="2.154" height="2.308" x="271.146" y="47.108" fill="#666" stroke="#000" stroke-opacity="0"/></g><g id="svg_226"><rect id="svg_227" width="21.143" height="8.857" x="249.722" y="58.756" fill="#b2b2b2" stroke="#999"/><rect id="svg_228" width="1.846" height="4.923" x="250.531" y="60.743" fill="#fff" stroke="#000" stroke-opacity="0"/><rect id="svg_229" width="1.846" height="4.923" x="268.223" y="60.743" fill="#fff" stroke="#000" stroke-opacity="0"/><rect id="svg_230" width="11.231" height="5.385" x="254.685" y="60.435" fill="#f2f2f2" stroke="#000" stroke-opacity="0"/><rect id="svg_231" width="2.923" height="3.077" x="246.223" y="61.666" fill="#f2f2f2" stroke="#000" stroke-opacity="0"/><rect id="svg_232" width="2.154" height="2.308" x="247.3" y="62.281" fill="#666" stroke="#000" stroke-opacity="0"/><rect id="svg_233" width="2.154" height="2.308" x="271.146" y="62.051" fill="#666" stroke="#000" stroke-opacity="0"/></g><g id="svg_234"><rect id="svg_235" width="21.143" height="8.857" x="249.722" y="73.525" fill="#b2b2b2" stroke="#999"/><rect id="svg_236" width="1.846" height="4.923" x="250.531" y="75.512" fill="#fff" stroke="#000" stroke-opacity="0"/><rect id="svg_237" width="1.846" height="4.923" x="268.223" y="75.512" fill="#fff" stroke="#000" stroke-opacity="0"/><rect id="svg_238" width="11.231" height="5.385" x="254.685" y="75.204" fill="#f2f2f2" stroke="#000" stroke-opacity="0"/><rect id="svg_239" width="2.923" height="3.077" x="246.223" y="76.435" fill="#f2f2f2" stroke="#000" stroke-opacity="0"/><rect id="svg_240" width="2.154" height="2.308" x="247.3" y="77.051" fill="#666" stroke="#000" stroke-opacity="0"/><rect id="svg_241" width="2.154" height="2.308" x="271.146" y="76.82" fill="#666" stroke="#000" stroke-opacity="0"/></g><g id="svg_242"><rect id="svg_243" width="21.143" height="8.857" x="249.722" y="88.756" fill="#b2b2b2" stroke="#999"/><rect id="svg_244" width="1.846" height="4.923" x="250.531" y="90.743" fill="#fff" stroke="#000" stroke-opacity="0"/><rect id="svg_245" width="1.846" height="4.923" x="268.223" y="90.743" fill="#fff" stroke="#000" stroke-opacity="0"/><rect id="svg_246" width="11.231" height="5.385" x="254.685" y="90.435" fill="#f2f2f2" stroke="#000" stroke-opacity="0"/><rect id="svg_247" width="2.923" height="3.077" x="246.223" y="91.666" fill="#f2f2f2" stroke="#000" stroke-opacity="0"/><rect id="svg_248" width="2.154" height="2.308" x="247.3" y="92.281" fill="#666" stroke="#000" stroke-opacity="0"/><rect id="svg_249" width="2.154" height="2.308" x="271.146" y="92.051" fill="#666" stroke="#000" stroke-opacity="0"/></g><g id="svg_250"><rect id="svg_251" width="21.143" height="8.857" x="249.722" y="103.525" fill="#b2b2b2" stroke="#999"/><rect id="svg_252" width="1.846" height="4.923" x="250.531" y="105.512" fill="#fff" stroke="#000" stroke-opacity="0"/><rect id="svg_253" width="1.846" height="4.923" x="268.223" y="105.512" fill="#fff" stroke="#000" stroke-opacity="0"/><rect id="svg_254" width="11.231" height="5.385" x="254.685" y="105.204" fill="#f2f2f2" stroke="#000" stroke-opacity="0"/><rect id="svg_255" width="2.923" height="3.077" x="246.223" y="106.435" fill="#f2f2f2" stroke="#000" stroke-opacity="0"/><rect id="svg_256" width="2.154" height="2.308" x="247.3" y="107.051" fill="#666" stroke="#000" stroke-opacity="0"/><rect id="svg_257" width="2.154" height="2.308" x="271.146" y="106.82" fill="#666" stroke="#000" stroke-opacity="0"/></g><line id="svg_259" x1="227.577" x2="247.577" y1="47.923" y2="48.231" fill="none" stroke="#aa56ff" stroke-width="4"/><line id="svg_260" x1="227.115" x2="247.731" y1="63.154" y2="63.308" fill="none" stroke="#aa56ff" stroke-width="4"/><line id="svg_261" x1="226.5" x2="247.423" y1="78.077" y2="78.077" fill="none" stroke="#aa56ff" stroke-width="4"/><line id="svg_262" x1="226.5" x2="247.423" y1="93" y2="93.462" fill="none" stroke="#aa56ff" stroke-width="4"/><line id="svg_263" x1="226.192" x2="247.731" y1="107.462" y2="107.923" fill="none" stroke="#aa56ff" stroke-width="4"/><line id="svg_264" x1="227.362" x2="275.669" y1="32.692" y2="32.846" fill="none" stroke="#333" stroke-width="4"/><line id="svg_266" x1="274.768" x2="274.46" y1="110.385" y2="31" fill="none" stroke="#333" stroke-width="4"/></g></svg>