<svg xmlns="http://www.w3.org/2000/svg" xmlns:svg="http://www.w3.org/2000/svg" width="270" height="300"><g class="layer"><title>Layer 1</title><rect id="svg_1" width="180" height="272" x="88.088" y="13.34" fill="#63afe7" stroke="#000" stroke-opacity="0" stroke-width="5"/><rect id="svg_20" width="24.333" height="23" x="191.967" y="225.967" fill="#323232" stroke="#000" stroke-opacity="0" stroke-width="5"/><rect id="svg_21" width="8.333" height="5" x="119.633" y="231.3" fill="#323232" stroke="#000" stroke-opacity="0" stroke-width="5"/><rect id="svg_22" width="8.333" height="5" x="131.633" y="230.967" fill="#323232" stroke="#000" stroke-opacity="0" stroke-width="5"/><rect id="svg_23" width="8.333" height="5" x="121.633" y="260.967" fill="#323232" stroke="#000" stroke-opacity="0" stroke-width="5"/><rect id="svg_24" width="8.333" height="5" x="121.633" y="252.3" fill="#323232" stroke="#000" stroke-opacity="0" stroke-width="5"/><g id="svg_41"><circle id="svg_25" cx="96.467" cy="21.735" r="5.735" fill="#323232" stroke="#000" stroke-opacity="0" stroke-width="5"/><circle id="svg_27" cx="96.533" cy="21.735" r="3.35" fill="#f0f0f0" stroke="#000" stroke-opacity="0" stroke-width="5"/></g><g id="svg_42"><circle id="svg_43" cx="96.467" cy="36.735" r="5.735" fill="#323232" stroke="#000" stroke-opacity="0" stroke-width="5"/><circle id="svg_44" cx="96.533" cy="36.735" r="3.35" fill="#f0f0f0" stroke="#000" stroke-opacity="0" stroke-width="5"/></g><g id="svg_45"><circle id="svg_46" cx="96.467" cy="51.735" r="5.735" fill="#323232" stroke="#000" stroke-opacity="0" stroke-width="5"/><circle id="svg_47" cx="96.533" cy="51.735" r="3.35" fill="#f0f0f0" stroke="#000" stroke-opacity="0" stroke-width="5"/></g><g id="svg_48"><circle id="svg_49" cx="96.467" cy="66.735" r="5.735" fill="#323232" stroke="#000" stroke-opacity="0" stroke-width="5"/><circle id="svg_50" cx="96.533" cy="66.735" r="3.35" fill="#f0f0f0" stroke="#000" stroke-opacity="0" stroke-width="5"/></g><g id="svg_51"><circle id="svg_52" cx="96.467" cy="81.735" r="5.735" fill="#323232" stroke="#000" stroke-opacity="0" stroke-width="5"/><circle id="svg_53" cx="96.533" cy="81.735" r="3.35" fill="#f0f0f0" stroke="#000" stroke-opacity="0" stroke-width="5"/></g><g id="svg_54"><circle id="svg_55" cx="96.467" cy="96.735" r="5.735" fill="#323232" stroke="#000" stroke-opacity="0" stroke-width="5"/><circle id="svg_56" cx="96.533" cy="96.735" r="3.35" fill="#f0f0f0" stroke="#000" stroke-opacity="0" stroke-width="5"/></g><g id="svg_57"><circle id="svg_58" cx="96.467" cy="111.735" r="5.735" fill="#323232" stroke="#000" stroke-opacity="0" stroke-width="5"/><circle id="svg_59" cx="96.533" cy="111.735" r="3.35" fill="#f0f0f0" stroke="#000" stroke-opacity="0" stroke-width="5"/></g><g id="svg_60"><rect id="svg_7" width="83.333" height="99.738" x="135.529" y="52.168" fill="#fff" stroke="#000" stroke-opacity="0" stroke-width="5"/><text id="svg_2" x="177.1" y="138.733" fill="#000" stroke="#000" stroke-opacity="0" stroke-width="0" font-family="Helvetica" font-size="13" text-anchor="middle" xml:space="preserve">LuatOS</text><path id="svg_3" fill="#a0c9ff" stroke="#000" stroke-opacity="0" stroke-width="5" d="m179.088904,111.31754c-0.54695,0.05148 -1.10677,0.08687 -1.68267,0.08687l0,0c-0.51477,0 -1.01507,-0.02735 -1.5025,-0.06917l0,0l-4.22436,5.42926l-1.0392,-0.29439c-1.21937,-0.34265 -2.40335,-0.77216 -3.54229,-1.28694l0,0l-0.98772,-0.44721l0.25417,-6.82075c-0.89764,-0.62738 -1.73576,-1.32715 -2.51113,-2.09449l0,0l-6.6792,1.43493l-0.60968,-0.89602c-0.71586,-1.05207 -1.32555,-2.15401 -1.86606,-3.26882l0,0l-0.46973,-0.97324l4.53484,-5.01905c-0.28313,-1.06333 -0.47134,-2.16044 -0.56786,-3.27847l0,0l-6.00999,-3.17712l0.10939,-1.0762c0.12869,-1.28854 0.37804,-2.52078 0.67564,-3.70476l0,0l0.26543,-1.05046l6.70333,-0.9282c0.47777,-1.00864 1.0408,-1.96419 1.67462,-2.86343l0,0l-2.55778,-6.29633l0.77216,-0.75608c0.90729,-0.88476 1.87892,-1.68588 2.89238,-2.41783l0,0l0.87834,-0.63381l5.78638,3.63398c0.97485,-0.44882 1.99475,-0.81881 3.05164,-1.10194l0,0l2.09771,-6.50867l1.08102,-0.08204c0.58234,-0.04344 1.20811,-0.0933 1.88858,-0.0933l0,0c0.67886,0 1.30302,0.04986 1.88536,0.0933l0,0l1.08102,0.08204l2.12023,6.57624c1.01668,0.28312 2.00118,0.64507 2.94547,1.08424l0,0l5.86682,-3.68546l0.88155,0.63382c1.01346,0.73194 1.9867,1.53467 2.89238,2.41461l0,0l0.77538,0.75607l-2.63661,6.48455c0.5743,0.8349 1.09229,1.71805 1.53467,2.64787l0,0l6.91245,0.95715l0.26865,1.05046c0.30243,1.18238 0.55016,2.41462 0.67564,3.70477l0,0l0.10939,1.0762l-6.21911,3.28812c-0.09331,1.01989 -0.259,2.0237 -0.50674,3.00177l0,0l4.68606,5.1767l-0.47134,0.97807c-0.53891,1.11802 -1.14538,2.22318 -1.86445,3.27203l0,0l-0.60969,0.89281l-6.84488,-1.4671c-0.72551,0.72551 -1.51054,1.3931 -2.35027,1.99635l0,0l0.26061,6.95428l-0.98933,0.44721c-1.14055,0.51316 -2.32292,0.94429 -3.54229,1.28693l0,0l-1.04242,0.29439l-4.23401,-5.44373l0,0l0,-0.00001zm5.43247,1.74219c0.36517,-0.12226 0.7239,-0.25256 1.07942,-0.39251l0,0l-0.24452,-6.5682l0.77055,-0.49386c1.15342,-0.74964 2.20388,-1.64728 3.13691,-2.66717l0,0l0.62094,-0.68047l6.4765,1.38667c0.19465,-0.32495 0.38287,-0.65794 0.56465,-0.99737l0,0l-4.43028,-4.8984l0.27508,-0.87511c0.39091,-1.25959 0.61291,-2.61087 0.67886,-4.02168l0,0l0.04022,-0.91855l5.88451,-3.10955c-0.06113,-0.37643 -0.13191,-0.75125 -0.21234,-1.12607l0,0l-6.54729,-0.90568l-0.35229,-0.84777c-0.52604,-1.26602 -1.22259,-2.45161 -2.05427,-3.5455l0,0l-0.55017,-0.72873l2.49022,-6.12581c-0.28795,-0.25256 -0.58395,-0.49869 -0.88799,-0.73677l0,0l-5.55795,3.4892l-0.81881,-0.43112c-1.21293,-0.63864 -2.524,-1.12285 -3.90745,-1.43815l0,0l-0.89442,-0.2043l-2.00762,-6.22555c-0.19465,-0.00965 -0.38447,-0.01448 -0.56947,-0.01448l0,0c-0.18822,0 -0.37804,0.00483 -0.5743,0.01448l0,0l-1.99314,6.18533l-0.90729,0.19304c-1.40758,0.30243 -2.74921,0.79468 -3.99915,1.44137l0,0l-0.8172,0.42469l-5.46787,-3.43451c-0.30243,0.23808 -0.59842,0.48421 -0.88476,0.73677l0,0l2.42426,5.96494l-0.56947,0.73034c-0.88798,1.14054 -1.62636,2.38887 -2.17974,3.7305l0,0l-0.35069,0.85099l-6.33655,0.87672c-0.08043,0.37482 -0.15122,0.74964 -0.21074,1.12607l0,0l5.68021,3.00338l0.03539,0.92499c0.05952,1.49445 0.30887,2.92778 0.73838,4.2678l0,0l0.28152,0.88155l-4.29032,4.74557c0.18017,0.34104 0.36839,0.67403 0.56464,0.99898l0,0l6.29955,-1.35611l0.62738,0.68047c0.96681,1.0569 2.07036,1.97705 3.28651,2.73956l0,0l0.78503,0.49065l-0.23969,6.46685c0.35552,0.13995 0.71586,0.27025 1.08102,0.39251l0,0l3.98789,-5.12844l0.91051,0.11261c0.6869,0.08687 1.35611,0.14317 2.0221,0.14317l0,0c0.71586,0 1.43815,-0.06273 2.17653,-0.1673l0,0l0.91855,-0.12869l4.01845,5.16865l0,0zm1.8178,-13.31656l0.87833,1.34967l-5.57082,3.62434l-1.97705,-3.042l0,0c-0.71908,0.17535 -1.47515,0.2783 -2.26179,0.2783l0,0c-5.44374,0 -9.85471,-4.41258 -9.85471,-9.84988l0,0c0,-5.44373 4.41097,-9.8547 9.85471,-9.8547l0,0c5.4373,0 9.84988,4.41097 9.84988,9.8547l0,0c0,2.23444 -0.75125,4.3048 -2.01084,5.95851l0,0l1.09229,1.68106m-3.7482,0.5196l0.17374,-0.111l-1.58776,-2.44356l0.92016,-0.92016c1.20328,-1.2065 1.94166,-2.85217 1.94166,-4.68445l0,0c-0.00643,-3.66454 -2.97282,-6.63093 -6.63254,-6.63736l0,0c-3.66776,0.00643 -6.63093,2.9696 -6.63737,6.63736l0,0c0.00644,3.65973 2.97282,6.62611 6.63737,6.63255l0,0c0.81881,0 1.60706,-0.16731 2.36957,-0.46008l0,0l1.21615,-0.46652l1.59902,2.45322l0,0z"/></g><g id="svg_61"><rect id="svg_10" width="4.571" height="9.429" x="119.057" y="175.219" fill="#c8c8c8" stroke="#000" stroke-opacity="0" stroke-width="5"/><rect id="svg_12" width="4.571" height="9.429" x="126.771" y="175.248" fill="#c8c8c8" stroke="#000" stroke-opacity="0" stroke-width="5"/><rect id="svg_13" width="4.571" height="9.429" x="134.771" y="175.248" fill="#c8c8c8" stroke="#000" stroke-opacity="0" stroke-width="5"/><rect id="svg_15" width="4.571" height="9.429" x="144.2" y="175.248" fill="#c8c8c8" stroke="#000" stroke-opacity="0" stroke-width="5"/><rect id="svg_19" width="4.571" height="9.429" x="119.057" y="207.633" fill="#c8c8c8" stroke="#000" stroke-opacity="0" stroke-width="5"/><rect id="svg_18" width="4.571" height="9.429" x="126.771" y="207.662" fill="#c8c8c8" stroke="#000" stroke-opacity="0" stroke-width="5"/><rect id="svg_17" width="4.571" height="9.429" x="134.771" y="207.662" fill="#c8c8c8" stroke="#000" stroke-opacity="0" stroke-width="5"/><rect id="svg_16" width="4.571" height="9.429" x="144.2" y="207.662" fill="#c8c8c8" stroke="#000" stroke-opacity="0" stroke-width="5"/><rect id="svg_5" width="33" height="27" x="117.314" y="182.662" fill="#323232" stroke="#000" stroke-opacity="0" stroke-width="5"/></g><g id="svg_80"><circle id="svg_81" cx="96.467" cy="126.467" r="5.735" fill="#323232" stroke="#000" stroke-opacity="0" stroke-width="5"/><circle id="svg_82" cx="96.533" cy="126.467" r="3.35" fill="#f0f0f0" stroke="#000" stroke-opacity="0" stroke-width="5"/></g><g id="svg_77"><circle id="svg_78" cx="96.467" cy="141.467" r="5.735" fill="#323232" stroke="#000" stroke-opacity="0" stroke-width="5"/><circle id="svg_79" cx="96.533" cy="141.467" r="3.35" fill="#f0f0f0" stroke="#000" stroke-opacity="0" stroke-width="5"/></g><g id="svg_74"><circle id="svg_75" cx="96.467" cy="156.467" r="5.735" fill="#323232" stroke="#000" stroke-opacity="0" stroke-width="5"/><circle id="svg_76" cx="96.533" cy="156.467" r="3.35" fill="#f0f0f0" stroke="#000" stroke-opacity="0" stroke-width="5"/></g><g id="svg_71"><circle id="svg_72" cx="96.467" cy="171.467" r="5.735" fill="#323232" stroke="#000" stroke-opacity="0" stroke-width="5"/><circle id="svg_73" cx="96.533" cy="171.467" r="3.35" fill="#f0f0f0" stroke="#000" stroke-opacity="0" stroke-width="5"/></g><g id="svg_68"><circle id="svg_69" cx="96.467" cy="186.467" r="5.735" fill="#323232" stroke="#000" stroke-opacity="0" stroke-width="5"/><circle id="svg_70" cx="96.533" cy="186.467" r="3.35" fill="#f0f0f0" stroke="#000" stroke-opacity="0" stroke-width="5"/></g><g id="svg_65"><circle id="svg_66" cx="96.467" cy="201.467" r="5.735" fill="#323232" stroke="#000" stroke-opacity="0" stroke-width="5"/><circle id="svg_67" cx="96.533" cy="201.467" r="3.35" fill="#f0f0f0" stroke="#000" stroke-opacity="0" stroke-width="5"/></g><g id="svg_62"><circle id="svg_63" cx="96.467" cy="216.467" r="5.735" fill="#323232" stroke="#000" stroke-opacity="0" stroke-width="5"/><circle id="svg_64" cx="96.533" cy="216.467" r="3.35" fill="#f0f0f0" stroke="#000" stroke-opacity="0" stroke-width="5"/></g><g id="svg_101"><circle id="svg_102" cx="96.467" cy="231.8" r="5.735" fill="#323232" stroke="#000" stroke-opacity="0" stroke-width="5"/><circle id="svg_103" cx="96.533" cy="231.8" r="3.35" fill="#f0f0f0" stroke="#000" stroke-opacity="0" stroke-width="5"/></g><g id="svg_98"><circle id="svg_99" cx="96.467" cy="246.8" r="5.735" fill="#323232" stroke="#000" stroke-opacity="0" stroke-width="5"/><circle id="svg_100" cx="96.533" cy="246.8" r="3.35" fill="#f0f0f0" stroke="#000" stroke-opacity="0" stroke-width="5"/></g><g id="svg_95"><circle id="svg_96" cx="96.467" cy="261.8" r="5.735" fill="#323232" stroke="#000" stroke-opacity="0" stroke-width="5"/><circle id="svg_97" cx="96.533" cy="261.8" r="3.35" fill="#f0f0f0" stroke="#000" stroke-opacity="0" stroke-width="5"/></g><g id="svg_92"><circle id="svg_93" cx="96.467" cy="276.8" r="5.735" fill="#323232" stroke="#000" stroke-opacity="0" stroke-width="5"/><circle id="svg_94" cx="96.533" cy="276.8" r="3.35" fill="#f0f0f0" stroke="#000" stroke-opacity="0" stroke-width="5"/></g><g id="svg_155"><circle id="svg_156" cx="259.8" cy="21.934" r="5.735" fill="#323232" stroke="#000" stroke-opacity="0" stroke-width="5"/><circle id="svg_157" cx="259.867" cy="21.934" r="3.35" fill="#f0f0f0" stroke="#000" stroke-opacity="0" stroke-width="5"/></g><g id="svg_152"><circle id="svg_153" cx="259.8" cy="36.934" r="5.735" fill="#323232" stroke="#000" stroke-opacity="0" stroke-width="5"/><circle id="svg_154" cx="259.867" cy="36.934" r="3.35" fill="#f0f0f0" stroke="#000" stroke-opacity="0" stroke-width="5"/></g><g id="svg_149"><circle id="svg_150" cx="259.8" cy="51.934" r="5.735" fill="#323232" stroke="#000" stroke-opacity="0" stroke-width="5"/><circle id="svg_151" cx="259.867" cy="51.934" r="3.35" fill="#f0f0f0" stroke="#000" stroke-opacity="0" stroke-width="5"/></g><g id="svg_146"><circle id="svg_147" cx="259.8" cy="66.934" r="5.735" fill="#323232" stroke="#000" stroke-opacity="0" stroke-width="5"/><circle id="svg_148" cx="259.867" cy="66.934" r="3.35" fill="#f0f0f0" stroke="#000" stroke-opacity="0" stroke-width="5"/></g><g id="svg_143"><circle id="svg_144" cx="259.8" cy="81.934" r="5.735" fill="#323232" stroke="#000" stroke-opacity="0" stroke-width="5"/><circle id="svg_145" cx="259.867" cy="81.934" r="3.35" fill="#f0f0f0" stroke="#000" stroke-opacity="0" stroke-width="5"/></g><g id="svg_140"><circle id="svg_141" cx="259.8" cy="96.934" r="5.735" fill="#323232" stroke="#000" stroke-opacity="0" stroke-width="5"/><circle id="svg_142" cx="259.867" cy="96.934" r="3.35" fill="#f0f0f0" stroke="#000" stroke-opacity="0" stroke-width="5"/></g><g id="svg_137"><circle id="svg_138" cx="259.8" cy="111.934" r="5.735" fill="#323232" stroke="#000" stroke-opacity="0" stroke-width="5"/><circle id="svg_139" cx="259.867" cy="111.934" r="3.35" fill="#f0f0f0" stroke="#000" stroke-opacity="0" stroke-width="5"/></g><g id="svg_134"><circle id="svg_135" cx="259.8" cy="126.666" r="5.735" fill="#323232" stroke="#000" stroke-opacity="0" stroke-width="5"/><circle id="svg_136" cx="259.867" cy="126.666" r="3.35" fill="#f0f0f0" stroke="#000" stroke-opacity="0" stroke-width="5"/></g><g id="svg_131"><circle id="svg_132" cx="259.8" cy="141.666" r="5.735" fill="#323232" stroke="#000" stroke-opacity="0" stroke-width="5"/><circle id="svg_133" cx="259.867" cy="141.666" r="3.35" fill="#f0f0f0" stroke="#000" stroke-opacity="0" stroke-width="5"/></g><g id="svg_128"><circle id="svg_129" cx="259.8" cy="156.666" r="5.735" fill="#323232" stroke="#000" stroke-opacity="0" stroke-width="5"/><circle id="svg_130" cx="259.867" cy="156.666" r="3.35" fill="#f0f0f0" stroke="#000" stroke-opacity="0" stroke-width="5"/></g><g id="svg_125"><circle id="svg_126" cx="259.8" cy="171.666" r="5.735" fill="#323232" stroke="#000" stroke-opacity="0" stroke-width="5"/><circle id="svg_127" cx="259.867" cy="171.666" r="3.35" fill="#f0f0f0" stroke="#000" stroke-opacity="0" stroke-width="5"/></g><g id="svg_122"><circle id="svg_123" cx="259.8" cy="186.666" r="5.735" fill="#323232" stroke="#000" stroke-opacity="0" stroke-width="5"/><circle id="svg_124" cx="259.867" cy="186.666" r="3.35" fill="#f0f0f0" stroke="#000" stroke-opacity="0" stroke-width="5"/></g><g id="svg_119"><circle id="svg_120" cx="259.8" cy="201.666" r="5.735" fill="#323232" stroke="#000" stroke-opacity="0" stroke-width="5"/><circle id="svg_121" cx="259.867" cy="201.666" r="3.35" fill="#f0f0f0" stroke="#000" stroke-opacity="0" stroke-width="5"/></g><g id="svg_116"><circle id="svg_117" cx="259.8" cy="216.666" r="5.735" fill="#323232" stroke="#000" stroke-opacity="0" stroke-width="5"/><circle id="svg_118" cx="259.867" cy="216.666" r="3.35" fill="#f0f0f0" stroke="#000" stroke-opacity="0" stroke-width="5"/></g><g id="svg_113"><circle id="svg_114" cx="259.8" cy="231.999" r="5.735" fill="#323232" stroke="#000" stroke-opacity="0" stroke-width="5"/><circle id="svg_115" cx="259.867" cy="231.999" r="3.35" fill="#f0f0f0" stroke="#000" stroke-opacity="0" stroke-width="5"/></g><g id="svg_110"><circle id="svg_111" cx="259.8" cy="246.999" r="5.735" fill="#323232" stroke="#000" stroke-opacity="0" stroke-width="5"/><circle id="svg_112" cx="259.867" cy="246.999" r="3.35" fill="#f0f0f0" stroke="#000" stroke-opacity="0" stroke-width="5"/></g><g id="svg_107"><circle id="svg_108" cx="259.8" cy="261.999" r="5.735" fill="#323232" stroke="#000" stroke-opacity="0" stroke-width="5"/><circle id="svg_109" cx="259.867" cy="261.999" r="3.35" fill="#f0f0f0" stroke="#000" stroke-opacity="0" stroke-width="5"/></g><g id="svg_104"><circle id="svg_105" cx="259.8" cy="276.999" r="5.735" fill="#323232" stroke="#000" stroke-opacity="0" stroke-width="5"/><circle id="svg_106" cx="259.867" cy="276.999" r="3.35" fill="#f0f0f0" stroke="#000" stroke-opacity="0" stroke-width="5"/></g><rect id="svg_158" width="34" height="11.333" x="106.6" y="15.733" fill="#ff7f00" stroke="#000" stroke-opacity="0" stroke-width="5"/><text id="svg_159" x="123.208" y="24.469" fill="#fff" stroke="#000" stroke-opacity="0" stroke-width="0" font-family="Helvetica" font-size="9" font-weight="bold" text-anchor="middle" xml:space="preserve">VBAT</text><rect id="svg_161" width="34.667" height="11.333" x="105.8" y="31.133" fill="#4c4c4c" stroke="#000" stroke-opacity="0" stroke-width="5"/><text id="svg_160" x="124.122" y="39.869" fill="#fff" stroke="#000" stroke-opacity="0" stroke-width="0" font-family="Helvetica" font-size="9" font-weight="bold" text-anchor="middle" xml:space="preserve">GND</text><path id="svg_162" fill="#4c4c4c" stroke="#4c4c4c" d="m56.549784,19.15957l0,4.55856m-1.87901,-2.27928l3.75802,0m4.24655,5.64667l-10.62158,0m-14.19026,0l10.1163,0m0.0909,-5.41028l0.6363,0l0,10.88463l-0.6363,0l0,-10.88463zm3.27236,-5.96418l0.63629,0l0,22.66388l-0.63629,0l0,-22.66388zm-14.08618,10.83451l0.60753,0l0,0.99656l-0.60753,0l0,-0.99656zm25.42089,0.02507l0.60753,0l0,0.99657l-0.60753,0l0,-0.99657z" transform="rotate(-90, 50.2719, 27.043)"/><line id="svg_164" x1="50.6" x2="96.6" y1="13.733" y2="21.733" fill="none" stroke="red" stroke-width="5"/><line id="svg_165" x1="50.6" x2="98.6" y1="40.4" y2="37.067" fill="none" stroke="#333" stroke-width="5"/><rect id="svg_6" width="34.667" height="11.333" x="105.343" y="120.819" fill="#bfbf00" stroke="#000" stroke-opacity="0" stroke-width="5" transform="matrix(1, 0, 0, 1, 0, 0)"/><text id="svg_4" x="123.093" y="129.555" fill="#fff" stroke="#000" stroke-opacity="0" stroke-width="0" font-family="Helvetica" font-size="9" font-weight="bold" text-anchor="middle" xml:space="preserve">PWM0</text><path id="svg_8" fill="#000" fill-opacity="0" stroke="#000" d="m57.710583,126.650745l7.828847,0l1.083239,-4.166657l1.772568,8.020811l1.96952,-8.124979l1.723336,8.020811l1.871044,-7.916643l1.871044,7.968727l1.033998,-3.906237l7.878084,0m-27.684861,-0.361938l0.650758,0l0,0.880419l-0.650758,0l0,-0.880419zm27.685575,-0.059892l0.650757,0l0,0.880419l-0.650757,0l0,-0.880419z"/><line id="svg_14" x1="41.133" x2="41.133" y1="118.267" y2="135.946" fill="none" stroke="#000"/><line id="svg_26" x1="48.467" x2="41.459" y1="126.6" y2="126.6" fill="none" stroke="#000"/><line id="svg_29" x1="34.133" x2="41.017" y1="118.267" y2="125.151" fill="none" stroke="#000"/><line id="svg_30" x1="40.8" x2="34.717" y1="129.933" y2="136.016" fill="none" stroke="#000"/><path id="svg_31" fill="#000" stroke="#000" stroke-opacity="0" d="m32.709809,138.350805l3.131101,-7.500772l3.131101,7.500772l-6.262202,0z" transform="rotate(-142.373, 35.8417, 134.6)"/><rect id="svg_33" width="34.667" height="11.333" x="104.733" y="270.733" fill="#4c4c4c" stroke="#000" stroke-opacity="0" stroke-width="5"/><text id="svg_32" x="123.055" y="279.469" fill="#fff" stroke="#000" stroke-opacity="0" stroke-width="0" font-family="Helvetica" font-size="9" font-weight="bold" text-anchor="middle" xml:space="preserve">GND</text><line id="svg_34" x1="84.467" x2="96.8" y1="125.933" y2="126.933" fill="none" stroke="#bfbf00" stroke-width="5" transform="matrix(1, 0, 0, 1, 0, 0)"/><line id="svg_35" x1="48.133" x2="57.8" y1="125.933" y2="126.267" fill="none" stroke="#bfbf00" stroke-width="5"/><line id="svg_36" x1="32.8" x2="33.8" y1="136.933" y2="276.933" fill="none" stroke="#5fbf00" stroke-width="5" transform="matrix(1, 0, 0, 1, 0, 0)"/><line id="svg_37" x1="95.8" x2="32.133" y1="276.733" y2="274.067" fill="none" stroke="#5fbf00" stroke-width="5"/><line id="svg_38" x1="33.467" x2="31.8" y1="118.333" y2="88.333" fill="none" stroke="#5fbf00" stroke-width="5"/><line id="svg_40" x1="53.467" x2="26.8" y1="14" y2="14.333" fill="none" stroke="red" stroke-width="5"/><line id="svg_83" x1="29.133" x2="31.467" y1="12.667" y2="61.333" fill="none" stroke="red" stroke-width="5" transform="matrix(1, 0, 0, 1, 0, 0)"/></g></svg>