<svg xmlns="http://www.w3.org/2000/svg" xmlns:svg="http://www.w3.org/2000/svg" width="270" height="300"><g class="layer"><title>Layer 1</title><rect id="svg_1" width="180" height="272" x="63.754" y="13.34" fill="#63afe7" stroke="#000" stroke-opacity="0" stroke-width="5"/><rect id="svg_20" width="24.333" height="23" x="167.633" y="225.967" fill="#323232" stroke="#000" stroke-opacity="0" stroke-width="5"/><rect id="svg_21" width="8.333" height="5" x="95.3" y="231.3" fill="#323232" stroke="#000" stroke-opacity="0" stroke-width="5"/><rect id="svg_22" width="8.333" height="5" x="107.3" y="230.967" fill="#323232" stroke="#000" stroke-opacity="0" stroke-width="5"/><rect id="svg_23" width="8.333" height="5" x="97.3" y="260.967" fill="#323232" stroke="#000" stroke-opacity="0" stroke-width="5"/><rect id="svg_24" width="8.333" height="5" x="97.3" y="252.3" fill="#323232" stroke="#000" stroke-opacity="0" stroke-width="5"/><g id="svg_41"><circle id="svg_25" cx="72.133" cy="21.735" r="5.735" fill="#323232" stroke="#000" stroke-opacity="0" stroke-width="5"/><circle id="svg_27" cx="72.2" cy="21.735" r="3.35" fill="#f0f0f0" stroke="#000" stroke-opacity="0" stroke-width="5"/></g><g id="svg_42"><circle id="svg_43" cx="72.133" cy="36.735" r="5.735" fill="#323232" stroke="#000" stroke-opacity="0" stroke-width="5"/><circle id="svg_44" cx="72.2" cy="36.735" r="3.35" fill="#f0f0f0" stroke="#000" stroke-opacity="0" stroke-width="5"/></g><g id="svg_45"><circle id="svg_46" cx="72.133" cy="51.735" r="5.735" fill="#323232" stroke="#000" stroke-opacity="0" stroke-width="5"/><circle id="svg_47" cx="72.2" cy="51.735" r="3.35" fill="#f0f0f0" stroke="#000" stroke-opacity="0" stroke-width="5"/></g><g id="svg_48"><circle id="svg_49" cx="72.133" cy="66.735" r="5.735" fill="#323232" stroke="#000" stroke-opacity="0" stroke-width="5"/><circle id="svg_50" cx="72.2" cy="66.735" r="3.35" fill="#f0f0f0" stroke="#000" stroke-opacity="0" stroke-width="5"/></g><g id="svg_51"><circle id="svg_52" cx="72.133" cy="81.735" r="5.735" fill="#323232" stroke="#000" stroke-opacity="0" stroke-width="5"/><circle id="svg_53" cx="72.2" cy="81.735" r="3.35" fill="#f0f0f0" stroke="#000" stroke-opacity="0" stroke-width="5"/></g><g id="svg_54"><circle id="svg_55" cx="72.133" cy="96.735" r="5.735" fill="#323232" stroke="#000" stroke-opacity="0" stroke-width="5"/><circle id="svg_56" cx="72.2" cy="96.735" r="3.35" fill="#f0f0f0" stroke="#000" stroke-opacity="0" stroke-width="5"/></g><g id="svg_57"><circle id="svg_58" cx="72.133" cy="111.735" r="5.735" fill="#323232" stroke="#000" stroke-opacity="0" stroke-width="5"/><circle id="svg_59" cx="72.2" cy="111.735" r="3.35" fill="#f0f0f0" stroke="#000" stroke-opacity="0" stroke-width="5"/></g><g id="svg_60"><rect id="svg_7" width="83.333" height="99.738" x="111.196" y="52.168" fill="#fff" stroke="#000" stroke-opacity="0" stroke-width="5"/><text id="svg_2" x="152.767" y="138.733" fill="#000" stroke="#000" stroke-opacity="0" stroke-width="0" font-family="Helvetica" font-size="13" text-anchor="middle" xml:space="preserve">LuatOS</text><path id="svg_3" fill="#a0c9ff" stroke="#000" stroke-opacity="0" stroke-width="5" d="m154.755568,111.317544c-0.546947,0.051477 -1.106764,0.086868 -1.682667,0.086868l0,0c-0.514774,0 -1.01507,-0.027347 -1.502497,-0.069173l0,0l-4.224364,5.429257l-1.0392,-0.294386c-1.219371,-0.342646 -2.403351,-0.772161 -3.542289,-1.286935l0,0l-0.987723,-0.44721l0.25417,-6.820755c-0.897637,-0.627381 -1.735754,-1.327152 -2.511132,-2.094487l0,0l-6.679193,1.434932l-0.609685,-0.896028c-0.715858,-1.052069 -1.325543,-2.154007 -1.866056,-3.268815l0,0l-0.469731,-0.973245l4.534837,-5.019046c-0.283126,-1.06333 -0.47134,-2.160442 -0.56786,-3.278467l0,0l-6.009986,-3.177121l0.109389,-1.076199c0.128693,-1.288544 0.378037,-2.520784 0.675641,-3.704764l0,0l0.26543,-1.050461l6.703323,-0.928202c0.477775,-1.008635 1.040809,-1.964185 1.674624,-2.86343l0,0l-2.557783,-6.296329l0.772161,-0.756074c0.907289,-0.884768 1.878925,-1.685885 2.892386,-2.417829l0,0l0.878333,-0.633815l5.786381,3.633983c0.974853,-0.448819 1.994749,-0.818812 3.051645,-1.101938l0,0l2.097704,-6.508674l1.081025,-0.082042c0.582338,-0.043434 1.20811,-0.093303 1.888577,-0.093303l0,0c0.678858,0 1.303022,0.049869 1.88536,0.093303l0,0l1.081025,0.082042l2.120225,6.576238c1.016679,0.283126 2.001184,0.645076 2.945472,1.084243l0,0l5.866815,-3.68546l0.88155,0.633815c1.013461,0.731944 1.986706,1.53467 2.892386,2.414612l0,0l0.775378,0.756074l-2.636608,6.484544c0.574295,0.834899 1.092286,1.718058 1.53467,2.647869l0,0l6.912449,0.957158l0.268648,1.050461c0.30243,1.182372 0.550165,2.414612 0.675641,3.704764l0,0l0.109389,1.076199l-6.219113,3.288119c-0.093303,1.019896 -0.258996,2.023705 -0.506731,3.001776l0,0l4.686052,5.176696l-0.47134,0.978071c-0.538904,1.118025 -1.145372,2.22318 -1.864447,3.272032l0,0l-0.609685,0.892811l-6.844885,-1.467106c-0.72551,0.72551 -1.51054,1.393107 -2.350265,1.996358l0,0l0.260604,6.954275l-0.989331,0.44721c-1.140546,0.513165 -2.322918,0.944289 -3.542289,1.286935l0,0l-1.042417,0.294386l-4.234016,-5.443735l0,0l0.000003,-0.000002zm5.432474,1.742188c0.365168,-0.122259 0.723901,-0.252561 1.079417,-0.392515l0,0l-0.244518,-6.568194l0.770552,-0.493861c1.153415,-0.74964 2.203876,-1.647277 3.136904,-2.667173l0,0l0.620946,-0.680467l6.4765,1.386672c0.194649,-0.324951 0.382863,-0.657946 0.564643,-0.997375l0,0l-4.430274,-4.898396l0.275082,-0.875116c0.390906,-1.259588 0.612903,-2.610869 0.678858,-4.021672l0,0l0.040217,-0.91855l5.88451,-3.109557c-0.061129,-0.376428 -0.131911,-0.751248 -0.212344,-1.126068l0,0l-6.547282,-0.90568l-0.352298,-0.847768c-0.526035,-1.266022 -1.222588,-2.451611 -2.05427,-3.545506l0,0l-0.550165,-0.728727l2.490219,-6.12581c-0.287952,-0.252561 -0.583947,-0.498687 -0.887985,-0.73677l0,0l-5.55795,3.489202l-0.818812,-0.431123c-1.212936,-0.638641 -2.524001,-1.122851 -3.907456,-1.43815l0,0l-0.89442,-0.204301l-2.007619,-6.225548c-0.194649,-0.009652 -0.384472,-0.014478 -0.569469,-0.014478l0,0c-0.188214,0 -0.378037,0.004826 -0.574295,0.014478l0,0l-1.993141,6.185331l-0.907289,0.19304c-1.407585,0.30243 -2.749215,0.794682 -3.99915,1.441367l0,0l-0.817204,0.424689l-5.467865,-3.434508c-0.30243,0.238083 -0.598425,0.484209 -0.884768,0.73677l0,0l2.424264,5.964944l-0.569469,0.730336c-0.887985,1.140546 -1.626364,2.388873 -2.179746,3.730503l0,0l-0.35069,0.850986l-6.336546,0.876724c-0.080433,0.37482 -0.151215,0.74964 -0.210736,1.126068l0,0l5.680209,3.003384l0.035391,0.924985c0.059521,1.494453 0.308864,2.927777 0.738379,4.267798l0,0l0.281517,0.88155l-4.290319,4.745573c0.180171,0.341038 0.368385,0.674032 0.564643,0.998983l0,0l6.299547,-1.356108l0.627381,0.680467c0.96681,1.056895 2.070357,1.977054 3.28651,2.739563l0,0l0.78503,0.490644l-0.239692,6.466848c0.355516,0.139954 0.715858,0.270256 1.081025,0.392515l0,0l3.98789,-5.128436l0.910506,0.112607c0.686902,0.086868 1.356108,0.143172 2.022097,0.143172l0,0c0.715858,0 1.43815,-0.062738 2.176529,-0.167302l0,0l0.91855,-0.128693l4.018454,5.168653l0,0l0.000002,0zm1.817796,-13.31656l0.878333,1.349673l-5.57082,3.624331l-1.977054,-3.041993l0,0c-0.719075,0.175345 -1.475149,0.2783 -2.261788,0.2783l0,0c-5.443735,0 -9.854705,-4.412578 -9.854705,-9.849879l0,0c0,-5.443735 4.41097,-9.854705 9.854705,-9.854705l0,0c5.4373,0 9.849879,4.41097 9.849879,9.854705l0,0c0,2.234441 -0.751248,4.304797 -2.010836,5.958509l0,0l1.092286,1.681059m-3.748198,0.5196l0.173736,-0.110998l-1.587756,-2.443568l0.920159,-0.920159c1.203284,-1.206502 1.941663,-2.85217 1.941663,-4.684443l0,0c-0.006435,-3.664547 -2.97282,-6.630932 -6.632541,-6.637367l0,0c-3.667765,0.006435 -6.630932,2.969602 -6.637367,6.637367l0,0c0.006435,3.659721 2.97282,6.626106 6.637367,6.632541l0,0c0.818812,0 1.60706,-0.167302 2.369569,-0.460079l0,0l1.216154,-0.466514l1.599017,2.45322l0,0l-0.000001,0z"/></g><g id="svg_61"><rect id="svg_10" width="4.571" height="9.429" x="94.724" y="175.219" fill="#c8c8c8" stroke="#000" stroke-opacity="0" stroke-width="5"/><rect id="svg_12" width="4.571" height="9.429" x="102.438" y="175.248" fill="#c8c8c8" stroke="#000" stroke-opacity="0" stroke-width="5"/><rect id="svg_13" width="4.571" height="9.429" x="110.438" y="175.248" fill="#c8c8c8" stroke="#000" stroke-opacity="0" stroke-width="5"/><rect id="svg_15" width="4.571" height="9.429" x="119.867" y="175.248" fill="#c8c8c8" stroke="#000" stroke-opacity="0" stroke-width="5"/><rect id="svg_19" width="4.571" height="9.429" x="94.724" y="207.633" fill="#c8c8c8" stroke="#000" stroke-opacity="0" stroke-width="5"/><rect id="svg_18" width="4.571" height="9.429" x="102.438" y="207.662" fill="#c8c8c8" stroke="#000" stroke-opacity="0" stroke-width="5"/><rect id="svg_17" width="4.571" height="9.429" x="110.438" y="207.662" fill="#c8c8c8" stroke="#000" stroke-opacity="0" stroke-width="5"/><rect id="svg_16" width="4.571" height="9.429" x="119.867" y="207.662" fill="#c8c8c8" stroke="#000" stroke-opacity="0" stroke-width="5"/><rect id="svg_5" width="33" height="27" x="92.981" y="182.662" fill="#323232" stroke="#000" stroke-opacity="0" stroke-width="5"/></g><g id="svg_80"><circle id="svg_81" cx="72.133" cy="126.467" r="5.735" fill="#323232" stroke="#000" stroke-opacity="0" stroke-width="5"/><circle id="svg_82" cx="72.2" cy="126.467" r="3.35" fill="#f0f0f0" stroke="#000" stroke-opacity="0" stroke-width="5"/></g><g id="svg_77"><circle id="svg_78" cx="72.133" cy="141.467" r="5.735" fill="#323232" stroke="#000" stroke-opacity="0" stroke-width="5"/><circle id="svg_79" cx="72.2" cy="141.467" r="3.35" fill="#f0f0f0" stroke="#000" stroke-opacity="0" stroke-width="5"/></g><g id="svg_74"><circle id="svg_75" cx="72.133" cy="156.467" r="5.735" fill="#323232" stroke="#000" stroke-opacity="0" stroke-width="5"/><circle id="svg_76" cx="72.2" cy="156.467" r="3.35" fill="#f0f0f0" stroke="#000" stroke-opacity="0" stroke-width="5"/></g><g id="svg_71"><circle id="svg_72" cx="72.133" cy="171.467" r="5.735" fill="#323232" stroke="#000" stroke-opacity="0" stroke-width="5"/><circle id="svg_73" cx="72.2" cy="171.467" r="3.35" fill="#f0f0f0" stroke="#000" stroke-opacity="0" stroke-width="5"/></g><g id="svg_68"><circle id="svg_69" cx="72.133" cy="186.467" r="5.735" fill="#323232" stroke="#000" stroke-opacity="0" stroke-width="5"/><circle id="svg_70" cx="72.2" cy="186.467" r="3.35" fill="#f0f0f0" stroke="#000" stroke-opacity="0" stroke-width="5"/></g><g id="svg_65"><circle id="svg_66" cx="72.133" cy="201.467" r="5.735" fill="#323232" stroke="#000" stroke-opacity="0" stroke-width="5"/><circle id="svg_67" cx="72.2" cy="201.467" r="3.35" fill="#f0f0f0" stroke="#000" stroke-opacity="0" stroke-width="5"/></g><g id="svg_62"><circle id="svg_63" cx="72.133" cy="216.467" r="5.735" fill="#323232" stroke="#000" stroke-opacity="0" stroke-width="5"/><circle id="svg_64" cx="72.2" cy="216.467" r="3.35" fill="#f0f0f0" stroke="#000" stroke-opacity="0" stroke-width="5"/></g><g id="svg_101"><circle id="svg_102" cx="72.133" cy="231.8" r="5.735" fill="#323232" stroke="#000" stroke-opacity="0" stroke-width="5"/><circle id="svg_103" cx="72.2" cy="231.8" r="3.35" fill="#f0f0f0" stroke="#000" stroke-opacity="0" stroke-width="5"/></g><g id="svg_98"><circle id="svg_99" cx="72.133" cy="246.8" r="5.735" fill="#323232" stroke="#000" stroke-opacity="0" stroke-width="5"/><circle id="svg_100" cx="72.2" cy="246.8" r="3.35" fill="#f0f0f0" stroke="#000" stroke-opacity="0" stroke-width="5"/></g><g id="svg_95"><circle id="svg_96" cx="72.133" cy="261.8" r="5.735" fill="#323232" stroke="#000" stroke-opacity="0" stroke-width="5"/><circle id="svg_97" cx="72.2" cy="261.8" r="3.35" fill="#f0f0f0" stroke="#000" stroke-opacity="0" stroke-width="5"/></g><g id="svg_92"><circle id="svg_93" cx="72.133" cy="276.8" r="5.735" fill="#323232" stroke="#000" stroke-opacity="0" stroke-width="5"/><circle id="svg_94" cx="72.2" cy="276.8" r="3.35" fill="#f0f0f0" stroke="#000" stroke-opacity="0" stroke-width="5"/></g><g id="svg_155"><circle id="svg_156" cx="235.467" cy="21.934" r="5.735" fill="#323232" stroke="#000" stroke-opacity="0" stroke-width="5"/><circle id="svg_157" cx="235.533" cy="21.934" r="3.35" fill="#f0f0f0" stroke="#000" stroke-opacity="0" stroke-width="5"/></g><g id="svg_152"><circle id="svg_153" cx="235.467" cy="36.934" r="5.735" fill="#323232" stroke="#000" stroke-opacity="0" stroke-width="5"/><circle id="svg_154" cx="235.533" cy="36.934" r="3.35" fill="#f0f0f0" stroke="#000" stroke-opacity="0" stroke-width="5"/></g><g id="svg_149"><circle id="svg_150" cx="235.467" cy="51.934" r="5.735" fill="#323232" stroke="#000" stroke-opacity="0" stroke-width="5"/><circle id="svg_151" cx="235.533" cy="51.934" r="3.35" fill="#f0f0f0" stroke="#000" stroke-opacity="0" stroke-width="5"/></g><g id="svg_146"><circle id="svg_147" cx="235.467" cy="66.934" r="5.735" fill="#323232" stroke="#000" stroke-opacity="0" stroke-width="5"/><circle id="svg_148" cx="235.533" cy="66.934" r="3.35" fill="#f0f0f0" stroke="#000" stroke-opacity="0" stroke-width="5"/></g><g id="svg_143"><circle id="svg_144" cx="235.467" cy="81.934" r="5.735" fill="#323232" stroke="#000" stroke-opacity="0" stroke-width="5"/><circle id="svg_145" cx="235.533" cy="81.934" r="3.35" fill="#f0f0f0" stroke="#000" stroke-opacity="0" stroke-width="5"/></g><g id="svg_140"><circle id="svg_141" cx="235.467" cy="96.934" r="5.735" fill="#323232" stroke="#000" stroke-opacity="0" stroke-width="5"/><circle id="svg_142" cx="235.533" cy="96.934" r="3.35" fill="#f0f0f0" stroke="#000" stroke-opacity="0" stroke-width="5"/></g><g id="svg_137"><circle id="svg_138" cx="235.467" cy="111.934" r="5.735" fill="#323232" stroke="#000" stroke-opacity="0" stroke-width="5"/><circle id="svg_139" cx="235.533" cy="111.934" r="3.35" fill="#f0f0f0" stroke="#000" stroke-opacity="0" stroke-width="5"/></g><g id="svg_134"><circle id="svg_135" cx="235.467" cy="126.666" r="5.735" fill="#323232" stroke="#000" stroke-opacity="0" stroke-width="5"/><circle id="svg_136" cx="235.533" cy="126.666" r="3.35" fill="#f0f0f0" stroke="#000" stroke-opacity="0" stroke-width="5"/></g><g id="svg_131"><circle id="svg_132" cx="235.467" cy="141.666" r="5.735" fill="#323232" stroke="#000" stroke-opacity="0" stroke-width="5"/><circle id="svg_133" cx="235.533" cy="141.666" r="3.35" fill="#f0f0f0" stroke="#000" stroke-opacity="0" stroke-width="5"/></g><g id="svg_128"><circle id="svg_129" cx="235.467" cy="156.666" r="5.735" fill="#323232" stroke="#000" stroke-opacity="0" stroke-width="5"/><circle id="svg_130" cx="235.533" cy="156.666" r="3.35" fill="#f0f0f0" stroke="#000" stroke-opacity="0" stroke-width="5"/></g><g id="svg_125"><circle id="svg_126" cx="235.467" cy="171.666" r="5.735" fill="#323232" stroke="#000" stroke-opacity="0" stroke-width="5"/><circle id="svg_127" cx="235.533" cy="171.666" r="3.35" fill="#f0f0f0" stroke="#000" stroke-opacity="0" stroke-width="5"/></g><g id="svg_122"><circle id="svg_123" cx="235.467" cy="186.666" r="5.735" fill="#323232" stroke="#000" stroke-opacity="0" stroke-width="5"/><circle id="svg_124" cx="235.533" cy="186.666" r="3.35" fill="#f0f0f0" stroke="#000" stroke-opacity="0" stroke-width="5"/></g><g id="svg_119"><circle id="svg_120" cx="235.467" cy="201.666" r="5.735" fill="#323232" stroke="#000" stroke-opacity="0" stroke-width="5"/><circle id="svg_121" cx="235.533" cy="201.666" r="3.35" fill="#f0f0f0" stroke="#000" stroke-opacity="0" stroke-width="5"/></g><g id="svg_116"><circle id="svg_117" cx="235.467" cy="216.666" r="5.735" fill="#323232" stroke="#000" stroke-opacity="0" stroke-width="5"/><circle id="svg_118" cx="235.533" cy="216.666" r="3.35" fill="#f0f0f0" stroke="#000" stroke-opacity="0" stroke-width="5"/></g><g id="svg_113"><circle id="svg_114" cx="235.467" cy="231.999" r="5.735" fill="#323232" stroke="#000" stroke-opacity="0" stroke-width="5"/><circle id="svg_115" cx="235.533" cy="231.999" r="3.35" fill="#f0f0f0" stroke="#000" stroke-opacity="0" stroke-width="5"/></g><g id="svg_110"><circle id="svg_111" cx="235.467" cy="246.999" r="5.735" fill="#323232" stroke="#000" stroke-opacity="0" stroke-width="5"/><circle id="svg_112" cx="235.533" cy="246.999" r="3.35" fill="#f0f0f0" stroke="#000" stroke-opacity="0" stroke-width="5"/></g><g id="svg_107"><circle id="svg_108" cx="235.467" cy="261.999" r="5.735" fill="#323232" stroke="#000" stroke-opacity="0" stroke-width="5"/><circle id="svg_109" cx="235.533" cy="261.999" r="3.35" fill="#f0f0f0" stroke="#000" stroke-opacity="0" stroke-width="5"/></g><g id="svg_104"><circle id="svg_105" cx="235.467" cy="276.999" r="5.735" fill="#323232" stroke="#000" stroke-opacity="0" stroke-width="5"/><circle id="svg_106" cx="235.533" cy="276.999" r="3.35" fill="#f0f0f0" stroke="#000" stroke-opacity="0" stroke-width="5"/></g><rect id="svg_158" width="30.667" height="11.333" x="82.267" y="15.733" fill="#ff7f00" stroke="#000" stroke-opacity="0" stroke-width="5"/><text id="svg_159" x="96.874" y="24.469" fill="#fff" stroke="#000" stroke-opacity="0" stroke-width="0" font-family="Helvetica" font-size="9" font-weight="bold" text-anchor="middle" xml:space="preserve">VBAT</text><rect id="svg_161" width="30.667" height="11.333" x="81.467" y="31.133" fill="#4c4c4c" stroke="#000" stroke-opacity="0" stroke-width="5"/><text id="svg_160" x="96.074" y="39.869" fill="#fff" stroke="#000" stroke-opacity="0" stroke-width="0" font-family="Helvetica" font-size="9" font-weight="bold" text-anchor="middle" xml:space="preserve">GND</text><path id="svg_162" fill="#4c4c4c" stroke="#4c4c4c" d="m32.21645,19.159568l0,4.55856m-1.879013,-2.279281l3.758018,0m4.246557,5.646671l-10.621579,0m-14.190261,0l10.116302,0m0.090899,-5.410275l0.636292,0l0,10.884628l-0.636292,0l0,-10.884628zm3.272355,-5.96418l0.636292,0l0,22.663881l-0.636292,0l0,-22.663881zm-14.086182,10.834502l0.607536,0l0,0.996567l-0.607536,0l0,-0.996567zm25.420891,0.025076l0.607537,0l0,0.996567l-0.607537,0l0,-0.996567z" transform="rotate(-90, 25.9386, 27.043)"/><line id="svg_164" x1="26.267" x2="72.267" y1="13.733" y2="21.733" fill="none" stroke="red" stroke-width="5" transform="matrix(1, 0, 0, 1, 0, 0)"/><line id="svg_165" x1="26.267" x2="74.267" y1="40.4" y2="37.067" fill="none" stroke="#333" stroke-width="5"/></g></svg>